<?xml version="1.0" encoding="utf-8"?>
<!-- Generator: Adobe Illustrator 16.0.0, SVG Export Plug-In . SVG Version: 6.00 Build 0)  -->
<!DOCTYPE svg PUBLIC "-//W3C//DTD SVG 1.1//EN" "http://www.w3.org/Graphics/SVG/1.1/DTD/svg11.dtd" [
	<!ENTITY ns_extend "http://ns.adobe.com/Extensibility/1.0/">
	<!ENTITY ns_ai "http://ns.adobe.com/AdobeIllustrator/10.0/">
	<!ENTITY ns_graphs "http://ns.adobe.com/Graphs/1.0/">
	<!ENTITY ns_vars "http://ns.adobe.com/Variables/1.0/">
	<!ENTITY ns_imrep "http://ns.adobe.com/ImageReplacement/1.0/">
	<!ENTITY ns_sfw "http://ns.adobe.com/SaveForWeb/1.0/">
	<!ENTITY ns_custom "http://ns.adobe.com/GenericCustomNamespace/1.0/">
	<!ENTITY ns_adobe_xpath "http://ns.adobe.com/XPath/1.0/">
]>
<svg version="1.1" id="Шар_1" xmlns:x="&ns_extend;" xmlns:i="&ns_ai;" xmlns:graph="&ns_graphs;"
	 xmlns="http://www.w3.org/2000/svg" xmlns:xlink="http://www.w3.org/1999/xlink" x="0px" y="0px" width="122.73px"
	 height="203.883px" viewBox="0 0 122.73 203.883" enable-background="new 0 0 122.73 203.883" xml:space="preserve">
<metadata>
	<sfw  xmlns="&ns_sfw;">
		<slices></slices>
		<sliceSourceBounds  height="203.883" width="122.73" y="-766.158" x="-1106.093" bottomLeftOrigin="true"></sliceSourceBounds>
	</sfw>
</metadata>
<path id="path7306_1_" fill="none" stroke="#FFFFFF" stroke-linecap="round" stroke-linejoin="round" stroke-miterlimit="10" d="
	M61.365,0.5c-4.728,5.364-7.608,12.387-7.608,20.094c0.28,16.923,2.356,33.813,2.536,50.73c0.375,15.768-4.354,30.577-10.104,45.024
	c-1.916,3.992-3.989,7.899-6.063,11.811l-6.103-1.229c-5.491-1.099-9.063-6.438-7.965-11.93c0.961-4.806,5.189-8.143,9.907-8.165
	l2.219,0.238l-4.953-41.377C31.612,47.271,22.108,31.109,8.108,20.594C5.703,18.787,3.153,17.135,0.5,15.68v146.961h33.92
	c2.536,13.77,10.113,25.767,20.764,34.005c2.533,1.746,4.655,4.05,6.182,6.737c1.526-2.688,3.648-4.991,6.182-6.737
	c10.65-8.238,18.228-20.235,20.764-34.005h33.92V15.68c-2.653,1.455-5.203,3.107-7.608,4.914
	c-14,10.516-23.504,26.677-25.123,45.104l-4.953,41.377l2.219-0.238c4.717,0.022,8.946,3.359,9.907,8.165
	c1.098,5.491-2.474,10.831-7.965,11.93l-6.103,1.229c-2.074-3.911-4.146-7.818-6.063-11.811
	c-5.751-14.447-10.48-29.257-10.104-45.024c0.18-16.918,2.255-33.808,2.536-50.73C68.974,12.887,66.093,5.864,61.365,0.5z
	 M10.645,36.844c6.564,7.706,10.97,17.308,12.284,27.862L27.01,98.83c-5.197,2.588-9.137,7.336-10.62,13.079h-5.746V36.844z
	 M112.086,36.844v75.065h-5.746c-1.483-5.743-5.423-10.491-10.62-13.079l4.082-34.124C101.116,54.151,105.521,44.55,112.086,36.844z
	 M61.365,105.449c2.725,8.914,6.474,17.379,11.135,25.246c-4.433,1.348-8.292,3.967-11.135,7.49
	c-2.843-3.523-6.701-6.143-11.135-7.49C54.892,122.828,58.64,114.363,61.365,105.449z M10.645,122.056h5.746
	c1.812,7.002,7.277,12.534,14.226,14.466l4.874,1.109c-1.305,4.732-2.021,9.718-2.021,14.863H10.645V122.056z M106.34,122.056h5.746
	v30.438H89.262c0-5.146-0.716-10.131-2.021-14.863l4.874-1.109C99.063,134.59,104.528,129.058,106.34,122.056L106.34,122.056z
	 M45.396,139.97c6.154,0.87,10.897,6.131,10.897,12.524h-12.68C43.613,148.145,44.257,143.953,45.396,139.97z M77.334,139.97
	c1.139,3.983,1.783,8.175,1.783,12.524h-12.68C66.438,146.101,71.181,140.84,77.334,139.97z M44.762,162.641h11.531v21.361
	C50.697,178.151,46.632,170.804,44.762,162.641z M66.438,162.641h11.531c-1.87,8.163-5.935,15.511-11.531,21.361V162.641z"/>
</svg>
