<svg xmlns="http://www.w3.org/2000/svg" width="32" height="40.565" viewBox="0 0 32 40.565"><path fill="#e5e5e5" d="M31.85 9.323a.984.984 0 0 0-.834-.463h-6.795L17.254.357c-.023-.028-.055-.046-.08-.071-.038-.038-.074-.076-.119-.107-.041-.029-.086-.049-.131-.071-.033-.018-.063-.042-.101-.055-.013-.005-.026-.003-.038-.008-.046-.014-.094-.019-.141-.026C16.593.01 16.542 0 16.49 0c-.046 0-.089.01-.134.016-.054.008-.107.014-.159.03-.012.004-.024.002-.035.007-.035.012-.062.036-.095.051-.048.023-.095.045-.139.076-.042.03-.077.066-.114.103-.027.026-.059.044-.083.074L8.764 8.86H.985a.984.984 0 0 0-.873 1.441l15.507 29.736c.019.035.047.064.069.097.02.029.038.059.061.085.051.06.109.109.171.154.019.014.034.031.054.043a.966.966 0 0 0 .277.117c.007.002.013.007.02.008a.958.958 0 0 0 .218.024l.004.001.004-.001c.076 0 .153-.009.23-.026.006-.002.012-.007.019-.009a.955.955 0 0 0 .272-.118c.023-.016.043-.037.064-.053a.954.954 0 0 0 .159-.146c.025-.03.045-.064.067-.098.021-.035.05-.064.068-.102L31.9 10.277a.985.985 0 0 0-.05-.954zm-9.4.483l-4.973 5.395V3.737l4.973 6.069zm-6.943 5.396l-4.972-5.396 4.972-6.069v11.465zM8.798 10.83l6.709 7.279v17.453L2.609 10.83h6.189zm8.679 24.489V18.108l6.709-7.279h5.252l-11.961 24.49z"/></svg>