<svg xmlns="http://www.w3.org/2000/svg" width="135" height="132.442" viewBox="0 0 135 132.442"><path fill="#626261" d="M4.538 117.348c-3.719-22.061-4.883-45 1.727-66.644 2.982-9.767 7.701-18.795 13.51-27.164 4.641-6.685 10.018-13.286 16.692-18.032 5.967-4.244 13.53-5.969 19.038-.082 4.678 5 5.645 12.898 5.984 19.419.545 10.481-.598 21.337-3.916 31.314-4.111 12.363-9.582 24.418-16.081 35.705-3.376 5.864-7.132 11.581-11.651 16.633-3.427 3.831-7.591 7.644-12.663 9.038a11.257 11.257 0 0 1-6.363-.115c-2.515-.781-3.572-2.584-4.235-5.037-1.754-6.479-.735-13.916.051-20.469.767-6.394 1.84-12.59 3.668-18.777 1.511-5.115 3.443-10.111 5.995-14.8a43.953 43.953 0 0 1 4.227-6.381c.629-.79.886-1.605 1.833-1.336.834.236 1.606.63 2.348 1.072 6.057 3.604 8.81 11.953 10.807 18.261 1.833 5.793 3.209 11.762 4.673 17.658 1.791 7.217 2.739 14.639 4.278 21.912 1.471 6.951 3.082 14.711 7.238 20.633a13.953 13.953 0 0 0 1.785 2.076c.412.395 1.061.205 1.232-.326 3.045-9.391 2.975-19.406 4.158-29.12h-1.475c-.02 7.774-.484 15.566 1.205 23.218.135.605 1.07.744 1.35.176 1.854-3.763 2.951-7.96 4.219-11.942 1.969-6.175 3.932-12.353 6.156-18.44 2.174-5.959 4.562-11.928 7.84-17.377 1.889-3.141 4.938-7.859 9.131-7.789 1.24.021 2.416.646 3.371 1.391.332.259.715.294 1.045 0 4.197-3.757 5.902-9.309 9.445-13.577l-1.16-.149c1.348 2.513 3.375 4.57 4.723 7.083.268.501.994.457 1.273 0 2.373-3.886 4.449-8.394 3.791-13.056-.504-3.582-3.096-6.297-6.096-8.075-3.947-2.34-8.654-3.345-13.141-4.022-5.631-.851-11.35-1.071-17.037-1.081-7.793-.013-15.58.459-23.348 1.035-5.393.399-10.822 1.054-16.233 1.066l.196 1.45c32.664-12.055 66.933-18.808 100.351-28.334.914-.26.525-1.685-.393-1.423-33.418 9.526-67.688 16.279-100.351 28.334-.754.279-.678 1.452.196 1.45 8.993-.022 18.014-1.295 26.993-1.756 11.334-.582 23.217-1.001 34.336 1.662 4.428 1.061 9.584 2.857 12.037 6.998 2.844 4.8.002 10.784-2.576 15.008h1.273c-1.348-2.514-3.373-4.571-4.721-7.084-.211-.393-.859-.511-1.16-.149-3.535 4.259-5.27 9.839-9.445 13.577h1.045c-8.355-6.516-15.059 6.516-17.939 12.574-5.402 11.354-8.764 23.553-12.693 35.457-.713 2.16-1.396 4.381-2.402 6.426l1.348.176c-1.662-7.518-1.172-15.188-1.154-22.825.002-.978-1.363-.917-1.475 0-1.168 9.587-1.102 19.46-4.107 28.729.412-.108.822-.218 1.234-.325-2.309-2.209-3.682-5.246-4.812-8.183-1.42-3.696-2.404-7.562-3.289-11.415-1.729-7.52-2.799-15.168-4.435-22.705-1.247-5.748-2.772-11.528-4.407-17.176-1.918-6.623-4.361-13.765-9.182-18.88a15.068 15.068 0 0 0-3.255-2.593c-.87-.518-2.762-1.577-3.805-1.291-.724.2-1.409 1.414-1.863 1.965a41.44 41.44 0 0 0-1.9 2.536c-1.527 2.173-2.81 4.513-3.978 6.894C10.001 67.68 7.518 75.83 6.278 83.9c-.972 6.329-1.839 12.694-1.976 19.105-.098 4.537-.336 12.098 4.058 14.958 3.598 2.342 8.508 1.581 12.16-.104 4.921-2.27 8.906-6.463 12.301-10.576 8.744-10.597 15.054-23.294 20.449-35.852 3.799-8.846 7.35-17.872 8.668-27.45.912-6.62 1.367-13.334.979-20.013-.369-6.307-1.482-13.366-5.463-18.496C46.68-8.416 30.529 7.429 23.143 16.585 10.862 31.807 3.292 49.715.911 69.131c-1.983 16.176-.494 32.607 2.204 48.609.157.937 1.579.537 1.423-.392z"/></svg>