<svg xmlns="http://www.w3.org/2000/svg" width="264" height="89.952" viewBox="0 0 264 89.952"><path d="M110.996 22.708l-8.14 30.28h-5.663l-8.18-30.28h5.546l2.634 9.24 2.831 14.159 2.794-14.238 2.633-9.161h5.545zm2.313 21.59v-5.585c0-6.095 2.91-9.044 9.006-9.044 6.095 0 9.005 2.791 9.005 9.044v5.585c0 6.25-2.91 9.045-9.005 9.045-6.096 0-9.006-2.795-9.006-9.045zm12.585-.277v-5.034c0-2.871-.747-4.523-3.579-4.523-2.831 0-3.58 1.652-3.58 4.523v5.034c0 2.872.749 4.523 3.58 4.523 2.831.001 3.579-1.65 3.579-4.523zm10.14-21.393h5.388v21.748c0 2.557.472 3.381 2.711 3.381v5.191c-6.252 0-8.099-1.85-8.099-8.495V22.628zm29.961 30.283h-4.799l-.273-2.363c-1.454 1.732-3.501 2.518-5.469 2.518-3.813.041-7.55-1.967-7.55-9.044V29.705h5.349v14.277c0 2.987 1.259 4.208 3.498 4.208 2.087 0 3.736-1.022 3.736-4.012V29.705h5.508v23.206zm5.852-23.163h4.68l.278 2.358c1.455-1.73 3.498-2.517 5.465-2.517 3.812-.038 7.549 1.966 7.549 9.045v14.313h-5.349V38.673c0-2.988-1.257-4.208-3.499-4.208-2.086 0-3.735 1.024-3.735 4.012v14.472h-5.389V29.748zm23.193-4.014l5.388-.587v4.522h3.934v4.916h-3.934v9.792c0 2.557.393 4.286 4.014 3.853v4.72c-6.846.747-9.401-1.611-9.401-8.495V25.734zm30.709 20.097c0 4.875-2.909 7.195-9.004 7.195-6.097 0-9.007-2.791-9.007-9.044v-5.27c0-5.82 2.91-9.044 9.007-9.044 6.095 0 9.004 2.791 9.004 9.044v4.602h-12.584v.589c0 3.737 1.456 4.446 3.655 4.446 2.561 0 3.622-.905 3.622-2.518h5.307zm-12.584-6.963h7.354c0-2.908-.551-4.521-3.617-4.521-3.186 0-3.737 1.73-3.737 4.521zm34.758 6.963c0 4.875-2.909 7.195-9.005 7.195s-9.005-2.791-9.005-9.044v-5.27c0-5.82 2.909-9.044 9.005-9.044s9.005 2.791 9.005 9.044v4.602h-12.584v.589c0 3.737 1.454 4.446 3.656 4.446 2.56 0 3.62-.905 3.62-2.518h5.308zm-12.584-6.963h7.354c0-2.908-.551-4.521-3.617-4.521-3.187 0-3.737 1.73-3.737 4.521zM264 35.33c-3.501-.472-6.254.905-6.254 4.367v13.291h-5.387v-23.24h4.953l.238 2.436c.943-1.613 3.58-3.028 6.449-2.555v5.701zM129.099 72.673c-.057-2.525-.738-3.689-4.372-3.689s-4.373 1.361-4.373 4.91v7.67c0 3.463.283 4.824 4.373 4.824 4.089 0 4.372-.824 4.372-4.286v-2.983h-4.259V76.68h6.985v5.423c0 4.231-.513 6.812-7.098 6.812-6.019 0-7.098-2.58-7.098-7.381v-7.609c0-4.799 1.079-7.385 7.098-7.385 5.736 0 6.901 1.819 7.011 6.135h-2.639zm14.254 7.752l4.743 8.262h-3.182l-4.4-8.092h-2.471v8.123h-2.695V66.769l5.878-.029c3.833 0 6.218 1.592 6.218 5.988v1.537c-.001 3.494-1.055 5.562-4.091 6.16zm-5.31-11.1v8.684h3.183c2.412 0 3.517-.737 3.517-3.744v-1.537c0-3.006-1.104-3.262-3.517-3.402h-3.183zm26.519 12.178c0 4.799-1.08 7.385-7.1 7.385-6.018 0-7.098-2.586-7.098-7.385v-7.637c0-4.797 1.08-7.383 7.098-7.383 6.02 0 7.1 2.586 7.1 7.383v7.637zm-2.726-7.666c0-3.463-.281-4.884-4.373-4.884-4.086 0-4.371 1.421-4.371 4.884v7.695c0 3.465.285 4.826 4.371 4.826 4.092 0 4.373-1.361 4.373-4.826v-7.695zm16.982-7.068h2.726v14.709c0 4.794-1.536 7.38-6.731 7.38-5.196 0-6.788-2.586-6.788-7.38V66.796h2.727v14.707c0 3.464.683 4.83 4.062 4.83 3.377 0 4.006-1.366 4.006-4.83V66.769zm12.461 0c3.833 0 6.218 1.562 6.218 5.959v2.389c0 4.516-1.731 6.331-6.218 6.331h-3.18v7.271H185.4V66.796l5.879-.027zm-3.179 2.556v9.538h3.18c2.413 0 3.518-.737 3.518-3.747v-2.389c0-3.006-1.104-3.262-3.518-3.402h-3.18zm30.211-2.556h2.726v14.709c0 4.794-1.536 7.38-6.731 7.38-5.196 0-6.787-2.586-6.787-7.38V66.796h2.727v14.707c0 3.464.683 4.83 4.061 4.83 3.379 0 4.006-1.366 4.006-4.83V66.769zm16.435 21.918l-1.104-4.061h-6.562l-1.105 4.061h-2.811l5.818-21.834h2.757l5.792 21.834h-2.785zm-4.398-18.313l-1.477 7.127-1.108 4.569h5.167l-1.135-4.655-1.447-7.041z" fill="#3b3b3a"/><path fill="#009FE3" d="M49.783 21.745L38.756 33.709V8.286z"/><path fill="#FFED00" d="M34.388 33.709L23.361 21.745 34.388 8.286z"/><path fill="#009FE3" d="M19.511 24.015l14.877 16.14v38.703L5.786 24.015z"/><path fill="#FFED00" d="M38.756 78.321V40.155l14.876-16.14h11.647z"/><path fill="#3C3C3B" d="M70.629 20.673a2.183 2.183 0 0 0-1.852-1.027H53.709L38.262.79c-.052-.063-.12-.102-.177-.158-.085-.083-.166-.166-.264-.236-.091-.064-.19-.108-.29-.157-.076-.039-.141-.093-.224-.123-.027-.01-.057-.007-.084-.016-.102-.032-.206-.042-.311-.059-.117-.018-.23-.042-.346-.041-.1 0-.197.022-.298.035-.12.018-.238.03-.352.066-.026.008-.053.006-.079.015-.077.028-.137.079-.209.115-.107.051-.211.1-.309.168-.094.066-.172.147-.253.227-.06.058-.131.099-.185.165L19.434 19.646H2.184a2.182 2.182 0 0 0-1.937 3.195l34.387 65.938c.042.079.104.143.154.216.044.063.084.129.135.188.113.132.242.243.38.343.042.03.076.069.12.097.19.117.397.202.614.258.016.004.028.014.043.018.162.036.325.054.485.055h.014c.169-.001.341-.02.512-.061.015-.003.027-.014.042-.018.214-.057.417-.145.604-.262.053-.035.093-.081.143-.119.127-.096.248-.199.353-.322.057-.068.1-.145.148-.218.05-.077.112-.142.153-.226l32.204-65.939a2.187 2.187 0 0 0-.109-2.116zm-20.846 1.072L38.756 33.709V8.286l11.027 13.459zM34.388 33.709L23.361 21.745 34.388 8.286v25.423zm-14.877-9.694l14.876 16.141v38.703L5.786 24.015h13.725zm19.245 54.306V40.155l14.875-16.141h11.647L38.756 78.321z"/></svg>