<svg xmlns="http://www.w3.org/2000/svg" width="194" height="66.102" viewBox="0 0 194 66.102"><path d="M81.565 16.687l-5.981 22.252h-4.161l-6.011-22.252h4.076l1.936 6.79 2.081 10.404 2.053-10.462 1.935-6.732h4.072zm1.699 15.865v-4.104c0-4.479 2.14-6.646 6.619-6.646s6.617 2.05 6.617 6.646v4.104c0 4.593-2.138 6.646-6.617 6.646s-6.619-2.053-6.619-6.646zm9.248-.203V28.65c0-2.11-.548-3.324-2.629-3.324s-2.631 1.214-2.631 3.324v3.699c0 2.111.55 3.324 2.631 3.324s2.629-1.213 2.629-3.324zm7.452-15.72h3.96V32.61c0 1.878.346 2.484 1.992 2.484v3.815c-4.595 0-5.952-1.359-5.952-6.243V16.629zm22.017 22.253h-3.526l-.201-1.737c-1.067 1.273-2.572 1.851-4.019 1.851-2.802.029-5.547-1.445-5.547-6.646V21.83h3.93v10.49c0 2.195.926 3.093 2.57 3.093 1.534 0 2.745-.752 2.745-2.949V21.829h4.048v17.053zm4.3-17.022h3.439l.205 1.733c1.069-1.271 2.57-1.849 4.015-1.849 2.803-.028 5.548 1.444 5.548 6.647V38.91h-3.931V28.419c0-2.196-.924-3.093-2.57-3.093-1.533 0-2.746.752-2.746 2.949V38.91h-3.96V21.86zm17.044-2.949l3.96-.432v3.323h2.891v3.612h-2.891v7.195c0 1.878.287 3.149 2.949 2.831v3.469c-5.03.549-6.909-1.185-6.909-6.243V18.911zm22.566 14.768c0 3.582-2.137 5.287-6.616 5.287-4.48 0-6.618-2.051-6.618-6.646v-3.873c0-4.276 2.138-6.646 6.618-6.646 4.479 0 6.616 2.05 6.616 6.646v3.382h-9.247v.433c0 2.746 1.069 3.267 2.687 3.267 1.882 0 2.661-.665 2.661-1.85h3.899zm-9.247-5.117h5.405c0-2.137-.405-3.322-2.659-3.322-2.342 0-2.746 1.271-2.746 3.322zm25.541 5.117c0 3.582-2.137 5.287-6.617 5.287-4.479 0-6.617-2.051-6.617-6.646v-3.873c0-4.276 2.139-6.646 6.617-6.646 4.48 0 6.617 2.05 6.617 6.646v3.382h-9.247v.433c0 2.746 1.069 3.267 2.687 3.267 1.881 0 2.661-.665 2.661-1.85h3.899zm-9.247-5.117h5.405c0-2.137-.405-3.322-2.658-3.322-2.342 0-2.747 1.271-2.747 3.322zm21.062-2.6c-2.573-.347-4.596.666-4.596 3.209v9.768h-3.959V21.86h3.64l.175 1.79c.693-1.185 2.631-2.225 4.74-1.877v4.189zM94.868 53.404c-.042-1.855-.542-2.711-3.212-2.711-2.671 0-3.214 1-3.214 3.607v5.637c0 2.545.208 3.545 3.214 3.545 3.005 0 3.212-.605 3.212-3.149V58.14h-3.129v-1.793h5.133v3.985c0 3.108-.378 5.005-5.216 5.005-4.424 0-5.216-1.896-5.216-5.424v-5.592c0-3.525.792-5.426 5.216-5.426 4.215 0 5.071 1.336 5.151 4.508h-1.939zm10.474 5.696l3.486 6.071h-2.339l-3.233-5.947h-1.816v5.971h-1.98v-16.13l4.319-.022c2.817 0 4.57 1.17 4.57 4.402v1.129c0 2.567-.775 4.088-3.007 4.526zm-3.902-8.157v6.382h2.339c1.772 0 2.585-.542 2.585-2.751v-1.129c0-2.209-.812-2.398-2.585-2.502h-2.339zm19.489 8.949c0 3.526-.794 5.427-5.218 5.427-4.423 0-5.216-1.9-5.216-5.427v-5.611c0-3.525.793-5.426 5.216-5.426 4.424 0 5.218 1.9 5.218 5.426v5.611zm-2.004-5.633c0-2.545-.207-3.589-3.214-3.589-3.003 0-3.213 1.044-3.213 3.589v5.654c0 2.547.21 3.547 3.213 3.547 3.007 0 3.214-1 3.214-3.547v-5.654zm12.48-5.194h2.002v10.809c0 3.522-1.128 5.423-4.945 5.423-3.819 0-4.989-1.9-4.989-5.423V49.085h2.004v10.807c0 2.546.501 3.549 2.985 3.549 2.481 0 2.943-1.003 2.943-3.549V49.065zm9.156 0c2.816 0 4.569 1.147 4.569 4.38v1.754c0 3.318-1.271 4.652-4.569 4.652h-2.336v5.344h-1.983v-16.11l4.319-.02zm-2.336 1.878v7.01h2.336c1.773 0 2.586-.541 2.586-2.754v-1.754c0-2.209-.812-2.398-2.586-2.502h-2.336zm22.2-1.878h2.003v10.809c0 3.522-1.129 5.423-4.947 5.423s-4.986-1.9-4.986-5.423V49.085h2.003v10.807c0 2.546.501 3.549 2.983 3.549 2.483 0 2.944-1.003 2.944-3.549V49.065zm12.077 16.106l-.812-2.983h-4.821l-.812 2.983h-2.064l4.275-16.045h2.024l4.258 16.045h-2.048zm-3.231-13.457l-1.085 5.238-.815 3.357h3.797l-.834-3.421-1.063-5.174z" fill="#FFF"/><path fill="#009FE3" d="M36.583 15.979l-8.103 8.792V6.089z"/><path fill="#FFED00" d="M25.27 24.771l-8.103-8.792 8.103-9.89z"/><path fill="#009FE3" d="M14.338 17.647L25.27 29.508v28.441L4.252 17.647z"/><path fill="#FFED00" d="M28.48 57.554V29.508l10.931-11.861h8.559z"/><path fill="#3C3C3B" d="M51.901 15.192a1.605 1.605 0 0 0-1.361-.754H39.468L28.117.581c-.038-.046-.088-.074-.13-.116-.062-.061-.122-.123-.194-.173-.067-.047-.14-.08-.213-.115-.056-.029-.104-.069-.165-.091-.02-.007-.042-.005-.062-.012-.075-.023-.151-.031-.228-.043C27.039.017 26.956 0 26.871 0c-.074 0-.145.017-.219.026-.088.013-.175.022-.259.049-.019.006-.039.004-.058.011-.057.021-.101.058-.154.084-.079.038-.155.073-.227.124-.069.049-.126.108-.186.167-.044.042-.096.072-.136.121L14.281 14.438H1.605a1.604 1.604 0 0 0-1.424 2.347l25.27 48.455c.031.059.076.104.113.158.033.047.062.095.099.139.083.096.177.178.279.252.031.021.056.05.088.07.14.086.292.148.452.189.011.003.021.01.032.013.119.026.239.04.356.04l.004.001h.001l.005-.001c.124 0 .25-.014.376-.044.011-.003.02-.011.03-.014.157-.041.307-.105.444-.192.039-.025.068-.059.104-.087.094-.071.183-.146.259-.237.042-.05.073-.105.109-.16.037-.056.083-.104.112-.166l23.665-48.454a1.598 1.598 0 0 0-.078-1.555zm-15.318.787l-8.103 8.792V6.089l8.103 9.89zM25.27 24.771l-8.103-8.792 8.103-9.89v18.682zm-10.932-7.124L25.27 29.508v28.44L4.252 17.647h10.086zM28.48 57.554V29.508l10.931-11.861h8.559L28.48 57.554z"/></svg>