<svg xmlns="http://www.w3.org/2000/svg" width="64" height="1110.757" viewBox="0 0 64 1110.757"><path fill="#FCEA18" d="M13.555 55.738h6.351v6.471h-6.351z"/><path fill="#1D9CD8" d="M14.633 262.612H4.447v-3.237H1.213v-3.233h6.471v-6.472h3.473l.12 3.236h3.237zm3.344-.086l.014-10.183 3.238.005.005-3.236 3.235.005-.013 6.47 6.473.011-.005 3.472-3.236.115-.005 3.237zm-3.417 3.562l-10.184-.099-.03 3.233-3.237-.031-.031 3.238 6.469.062-.062 6.47 3.473.033.154-3.233 3.234.031zm35.884-26.123h10.188v-3.234h3.232v-3.237h-6.467v-6.471h-3.476l-.12 3.238h-3.237zm-3.343-.084l-.014-10.186-3.237.005-.005-3.235-3.235.004.008 6.471-6.471.011.008 3.476 3.235.112.004 3.236zm3.416 3.559l10.185-.099.03 3.234 3.238-.032.03 3.238-6.471.062.066 6.47-3.477.034-.151-3.234-3.236.032z"/><path fill="#FCEA18" d="M14.633 282.203h6.351v6.47h-6.351zm29.117-23.007h6.353v6.47H43.75z"/><path fill="#1D9CD8" d="M14.273 217.319H4.087v-3.235H.854v-3.237h6.471v-6.472h3.472l.121 3.236h3.236zm3.344-.084l.015-10.187 3.237.005.006-3.234 3.235.003-.012 6.47 6.473.009-.006 3.478-3.236.113-.005 3.237zm-3.416 3.56l-10.184-.101-.032 3.237-3.235-.033-.032 3.236 6.471.061-.063 6.471 3.474.033.151-3.233 3.233.031zm35.884-26.123h10.186v-3.236h3.235v-3.233h-6.472v-6.471h-3.472l-.12 3.234h-3.238zm-3.344-.087l-.017-10.185-3.235.005-.005-3.233-3.233.004.008 6.471-6.469.011.004 3.474 3.236.112.006 3.238zm3.417 3.562l10.184-.101.03 3.238 3.237-.034.031 3.236-6.469.064.063 6.471-3.474.033-.152-3.234-3.236.034z"/><path fill="#FCEA18" d="M14.273 236.91h6.351v6.471h-6.351zm29.118-23.007h6.351v6.471h-6.351z"/><path fill="#1D9CD8" d="M13.915 172.031H3.729v-3.238H.494v-3.235h6.471v-6.471h3.473l.12 3.235h3.236zm3.343-.086l.014-10.188 3.238.007.005-3.235 3.236.004-.013 6.473 6.472.007-.004 3.476-3.236.115-.006 3.235zm-3.414 3.562l-10.186-.102-.034 3.236-3.234-.031-.031 3.233 6.47.066-.063 6.47 3.474.034.151-3.235 3.234.032zm35.884-26.124h10.183v-3.237h3.235v-3.233h-6.471v-6.471h-3.473l-.12 3.233h-3.235zm-3.344-.086l-.02-10.187-3.232.007-.006-3.233-3.236.004.009 6.471-6.47.009.006 3.473 3.236.115.005 3.237zm3.415 3.562l10.182-.102.034 3.236 3.234-.031.033 3.235-6.471.065.063 6.468-3.475.036-.15-3.234-3.236.031z"/><path fill="#FCEA18" d="M13.915 191.62h6.35v6.471h-6.35zm29.117-23.005h6.35v6.469h-6.35z"/><path fill="#1D9CD8" d="M13.555 126.735H3.369v-3.237H.132v-3.233h6.474v-6.471h3.472l.121 3.233h3.233zm3.342-.085l.019-10.183 3.234.004.006-3.235 3.234.004-.011 6.471 6.473.009-.005 3.474-3.237.115-.004 3.236zm-3.415 3.562l-10.184-.1-.033 3.233-3.234-.03L0 136.55l6.471.064-.067 6.47 3.477.034.151-3.233 3.236.031zm35.884-26.124h10.186v-3.233h3.234v-3.237h-6.47v-6.471h-3.473l-.122 3.237h-3.235zm-3.344-.086l-.016-10.183-3.235.004-.004-3.235-3.238.004.011 6.471-6.471.012.006 3.473 3.237.118.005 3.232zm3.416 3.562l10.184-.099.032 3.235 3.236-.033.032 3.237-6.47.062.062 6.471-3.472.033-.152-3.233-3.237.031z"/><path fill="#FCEA18" d="M13.555 146.327h6.351v6.471h-6.351zm29.118-23.008h6.35v6.471h-6.35z"/><path fill="#1D9CD8" d="M13.915 81.443H3.729v-3.237H.494V74.97h6.471v-6.471h3.473l.12 3.238h3.236zm3.343-.087l.014-10.184 3.238.004.005-3.233 3.236.002-.013 6.471 6.472.013-.004 3.474-3.236.113-.006 3.237zm-3.414 3.563l-10.186-.102-.034 3.238-3.234-.033-.031 3.235 6.47.062-.063 6.471 3.474.033.151-3.233 3.234.03zm35.884-26.124h10.183V55.56h3.235v-3.233h-6.471v-6.471h-3.473l-.12 3.233h-3.235zm-3.344-.086l-.02-10.185-3.232.004-.006-3.233-3.236.005.009 6.471-6.47.011.006 3.473 3.236.115.005 3.235zm3.415 3.562l10.182-.102.034 3.238 3.234-.031.033 3.233-6.471.064.063 6.471-3.475.033-.15-3.233-3.236.034z"/><path fill="#FCEA18" d="M13.915 101.034h6.35v6.471h-6.35zm29.117-23.008h6.35v6.471h-6.35z"/><path fill="#1D9CD8" d="M13.555 36.147H3.369v-3.233H.132v-3.237h6.474v-6.469h3.472l.121 3.233h3.233zm3.342-.086l.019-10.182 3.234.006.006-3.237 3.234.004-.011 6.471 6.473.011-.005 3.476-3.237.115-.004 3.233zm-3.415 3.563l-10.184-.1-.033 3.236-3.234-.031L0 45.964l6.471.062-.067 6.471 3.477.035.151-3.236 3.236.034zM49.366 13.5h10.186v-3.233h3.234V7.032h-6.47V.561h-3.473l-.122 3.237h-3.235zm-3.344-.082l-.016-10.187-3.235.004L42.767 0l-3.238.007.011 6.469-6.471.011.006 3.475 3.237.115.005 3.233zm3.416 3.56l10.184-.099.032 3.233 3.236-.031.032 3.235-6.47.065.062 6.468-3.472.035-.152-3.235-3.237.031z"/><path fill="#FCEA18" d="M42.673 32.734h6.35v6.468h-6.35zM13.555 327.633h6.351v6.471h-6.351z"/><path fill="#1D9CD8" d="M14.633 534.507H4.447v-3.237H1.213v-3.233h6.471v-6.471h3.473l.12 3.235h3.237zm3.344-.086l.014-10.183 3.238.004.005-3.235 3.235.005-.013 6.47 6.473.012-.005 3.471-3.236.115-.005 3.237zm-3.417 3.562l-10.184-.099-.03 3.233-3.237-.031-.031 3.237 6.469.062-.062 6.47 3.473.034.154-3.233 3.234.031zm35.884-26.124h10.188v-3.233h3.232v-3.238h-6.467v-6.47h-3.476l-.12 3.237h-3.237zm-3.343-.084l-.014-10.185-3.237.005-.005-3.236-3.235.004.008 6.471-6.471.011.008 3.476 3.235.113.004 3.235zm3.416 3.56l10.185-.099.03 3.233 3.238-.031.03 3.238-6.471.062.066 6.47-3.477.034-.151-3.233-3.236.03z"/><path fill="#FCEA18" d="M14.633 554.098h6.351v6.47h-6.351zm29.117-23.007h6.353v6.471H43.75z"/><path fill="#1D9CD8" d="M14.273 489.213H4.087v-3.234H.854v-3.238h6.471v-6.471h3.472l.121 3.235h3.236zm3.344-.084l.015-10.186 3.237.004.006-3.233 3.235.002-.012 6.471 6.473.008-.006 3.478-3.236.114-.005 3.236zm-3.416 3.561l-10.184-.102-.032 3.238-3.235-.033-.032 3.235 6.471.062-.063 6.47 3.474.034.151-3.234 3.233.031zm35.884-26.124h10.186v-3.235h3.235v-3.233h-6.472v-6.472h-3.472l-.12 3.234h-3.238zm-3.344-.086l-.017-10.185-3.235.005-.005-3.234-3.233.004.008 6.472-6.469.011.004 3.473 3.236.113.006 3.237zm3.417 3.562l10.184-.102.03 3.238 3.237-.033.031 3.235-6.469.064.063 6.471-3.474.033-.152-3.233-3.236.033z"/><path fill="#FCEA18" d="M14.273 508.804h6.351v6.472h-6.351zm29.118-23.007h6.351v6.471h-6.351z"/><path fill="#1D9CD8" d="M13.915 443.925H3.729v-3.237H.494v-3.235h6.471v-6.472h3.473l.12 3.236h3.236zm3.343-.086l.014-10.187 3.238.007.005-3.236 3.236.005-.013 6.472 6.472.007-.004 3.476-3.236.115-.006 3.235zm-3.414 3.562L3.658 447.3l-.034 3.235-3.234-.031-.031 3.233 6.47.066-.063 6.471 3.474.033.151-3.235 3.234.032zm35.884-26.123h10.183v-3.238h3.235v-3.233h-6.471v-6.471h-3.473l-.12 3.233h-3.235zm-3.344-.087l-.02-10.187-3.232.007-.006-3.233-3.236.004.009 6.471-6.47.009.006 3.473 3.236.115.005 3.238zm3.415 3.562l10.182-.101.034 3.235 3.234-.031.033 3.236-6.471.064.063 6.469-3.475.035-.15-3.234-3.236.031z"/><path fill="#FCEA18" d="M13.915 463.514h6.35v6.471h-6.35zm29.117-23.005h6.35v6.469h-6.35z"/><path fill="#1D9CD8" d="M13.555 398.63H3.369v-3.238H.132v-3.233h6.474v-6.471h3.472l.121 3.234h3.233zm3.342-.086l.019-10.183 3.234.005.006-3.236 3.234.005-.011 6.47 6.473.009-.005 3.474-3.237.115-.004 3.237zm-3.415 3.562l-10.184-.099-.033 3.233-3.234-.031L0 408.444l6.471.064-.067 6.471 3.477.033.151-3.233 3.236.031zm35.884-26.124h10.186v-3.232h3.234v-3.238h-6.47v-6.471h-3.473l-.122 3.237h-3.235zm-3.344-.086l-.016-10.183-3.235.005-.004-3.236-3.238.005.011 6.471-6.471.011.006 3.474 3.237.117.005 3.233zm3.416 3.562l10.184-.099.032 3.235 3.236-.032.032 3.237-6.47.061.062 6.472-3.472.033-.152-3.234-3.237.032z"/><path fill="#FCEA18" d="M13.555 418.221h6.351v6.47h-6.351zm29.118-23.008h6.35v6.471h-6.35z"/><path fill="#1D9CD8" d="M13.915 353.337H3.729V350.1H.494v-3.236h6.471v-6.47h3.473l.12 3.237h3.236zm3.343-.086l.014-10.185 3.238.004.005-3.233 3.236.003-.013 6.47 6.472.013-.004 3.474-3.236.113-.006 3.237zm-3.414 3.562l-10.186-.101-.034 3.237-3.234-.033-.031 3.235 6.47.062-.063 6.471 3.474.033.151-3.233 3.234.031zm35.884-26.123h10.183v-3.236h3.235v-3.233h-6.471v-6.471h-3.473l-.12 3.234h-3.235zm-3.344-.086l-.02-10.186-3.232.005-.006-3.233-3.236.004.009 6.471-6.47.011.006 3.474 3.236.115.005 3.235zm3.415 3.562l10.182-.102.034 3.237 3.234-.03.033 3.233-6.471.064.063 6.471-3.475.033-.15-3.234-3.236.034z"/><path fill="#FCEA18" d="M13.915 372.928h6.35v6.47h-6.35zm29.117-23.007h6.35v6.471h-6.35z"/><path fill="#1D9CD8" d="M13.555 308.042H3.369v-3.233H.132v-3.238h6.474v-6.468h3.472l.121 3.233h3.233zm3.342-.086l.019-10.183 3.234.006.006-3.237 3.234.005-.011 6.47 6.473.011-.005 3.476-3.237.115-.004 3.234zm-3.415 3.562l-10.184-.1-.033 3.236-3.234-.031L0 317.858l6.471.062-.067 6.471 3.477.035.151-3.235 3.236.033zm35.884-26.123h10.186v-3.233h3.234v-3.235h-6.47v-6.47h-3.473l-.122 3.237h-3.235zm-3.344-.082l-.016-10.187-3.235.005-.004-3.235-3.238.006.011 6.469-6.471.011.006 3.474 3.237.116.005 3.233zm3.416 3.56l10.184-.1.032 3.233 3.236-.03.032 3.234-6.47.065.062 6.469-3.472.035-.152-3.236-3.237.031z"/><path fill="#FCEA18" d="M42.673 304.628h6.35v6.469h-6.35zM13.555 599.387h6.351v6.47h-6.351z"/><path fill="#1D9CD8" d="M14.633 806.261H4.447v-3.238H1.213v-3.232h6.471v-6.471h3.473l.12 3.235h3.237zm3.344-.086l.014-10.183 3.238.005.005-3.236 3.235.004-.013 6.471 6.473.012-.005 3.47-3.236.115-.005 3.239zm-3.417 3.562l-10.184-.099-.03 3.233-3.237-.032-.031 3.239 6.469.06-.062 6.471 3.473.033.154-3.232 3.234.031zm35.884-26.124h10.188v-3.233h3.232v-3.238h-6.467v-6.471h-3.476l-.12 3.239h-3.237zm-3.343-.084l-.014-10.185-3.237.005-.005-3.236-3.235.006.008 6.469-6.471.011.008 3.477 3.235.112.004 3.235zm3.416 3.56l10.185-.099.03 3.232 3.238-.03.03 3.237-6.471.063.066 6.47-3.477.034-.151-3.234-3.236.03z"/><path fill="#FCEA18" d="M14.633 825.851h6.351v6.471h-6.351zm29.117-23.007h6.353v6.472H43.75z"/><path fill="#1D9CD8" d="M14.273 760.967H4.087v-3.235H.854v-3.237h6.471v-6.47h3.472l.121 3.234h3.236zm3.344-.083l.015-10.187 3.237.004.006-3.233 3.235.002-.012 6.471 6.473.009-.006 3.478-3.236.113-.005 3.238zm-3.416 3.56l-10.184-.102-.032 3.238-3.235-.034-.032 3.237 6.471.06-.063 6.472 3.474.032.151-3.232 3.233.031zm35.884-26.123h10.186v-3.236h3.235v-3.233h-6.472v-6.472h-3.472l-.12 3.234h-3.238zm-3.344-.087l-.017-10.185-3.235.005-.005-3.233-3.233.005.008 6.469-6.469.011.004 3.475 3.236.112.006 3.237zm3.417 3.562l10.184-.101.03 3.237 3.237-.032.031 3.234-6.469.065.063 6.47-3.474.034-.152-3.234-3.236.033z"/><path fill="#FCEA18" d="M14.273 780.559h6.351v6.47h-6.351zm29.118-23.008h6.351v6.471h-6.351z"/><path fill="#1D9CD8" d="M13.915 715.679H3.729v-3.237H.494v-3.235h6.471v-6.471h3.473l.12 3.235h3.236zm3.343-.086l.014-10.187 3.238.007.005-3.236 3.236.004-.013 6.473 6.472.008-.004 3.475-3.236.115-.006 3.236zm-3.414 3.562l-10.186-.101-.034 3.236-3.234-.032-.031 3.234 6.47.066-.063 6.471 3.474.032.151-3.235 3.234.033zm35.884-26.123h10.183v-3.238h3.235v-3.233h-6.471v-6.471h-3.473l-.12 3.234h-3.235zm-3.344-.086l-.02-10.187-3.232.006-.006-3.233-3.236.005.009 6.47-6.47.009.006 3.474 3.236.115.005 3.236zm3.415 3.561l10.182-.101.034 3.236 3.234-.031.033 3.235-6.471.064.063 6.468-3.475.036-.15-3.233-3.236.031z"/><path fill="#FCEA18" d="M13.915 735.268h6.35v6.471h-6.35zm29.117-23.005h6.35v6.469h-6.35z"/><path fill="#1D9CD8" d="M13.555 670.384H3.369v-3.237H.132v-3.233h6.474v-6.471h3.472l.121 3.232h3.233zm3.342-.086l.019-10.183 3.234.005.006-3.236 3.234.004-.011 6.471 6.473.01-.005 3.472-3.237.116-.004 3.238zm-3.415 3.562l-10.184-.099-.033 3.233-3.234-.032L0 680.199l6.471.064-.067 6.47 3.477.033.151-3.233 3.236.031zm35.884-26.123h10.186v-3.234h3.234v-3.237h-6.47v-6.472h-3.473l-.122 3.239h-3.235zm-3.344-.087l-.016-10.183-3.235.005-.004-3.235-3.238.005.011 6.47-6.471.01.006 3.475 3.237.117.005 3.232zm3.416 3.562l10.184-.099.032 3.236 3.236-.033.032 3.237-6.47.062.062 6.47-3.472.034-.152-3.234-3.237.032z"/><path fill="#FCEA18" d="M13.555 689.975h6.351v6.472h-6.351zm29.118-23.007h6.35v6.471h-6.35z"/><path fill="#1D9CD8" d="M13.915 625.091H3.729v-3.238H.494v-3.234h6.471v-6.471h3.473l.12 3.237h3.236zm3.343-.086l.014-10.185 3.238.005.005-3.234 3.236.002-.013 6.471 6.472.014-.004 3.473-3.236.113-.006 3.238zm-3.414 3.562l-10.186-.101-.034 3.237-3.234-.034-.031 3.237 6.47.061-.063 6.471 3.474.033.151-3.233 3.234.031zm35.884-26.123h10.183v-3.236h3.235v-3.233h-6.471v-6.471h-3.473l-.12 3.234h-3.235zm-3.344-.087l-.02-10.185-3.232.005-.006-3.233-3.236.005.009 6.47-6.47.01.006 3.475 3.236.115.005 3.234zm3.415 3.562l10.182-.101.034 3.238 3.234-.031.033 3.232-6.471.065.063 6.47-3.475.034-.15-3.234-3.236.033z"/><path fill="#FCEA18" d="M13.915 644.682h6.35v6.471h-6.35zm29.117-23.007h6.35v6.471h-6.35z"/><path fill="#1D9CD8" d="M13.555 579.796H3.369v-3.233H.132v-3.237h6.474v-6.469h3.472l.121 3.233h3.233zm3.342-.086l.019-10.183 3.234.008.006-3.239 3.234.004-.011 6.471 6.473.012-.005 3.476-3.237.114-.004 3.234zm-3.415 3.562l-10.184-.099-.033 3.235-3.234-.031L0 589.613l6.471.062-.067 6.47 3.477.036.151-3.236 3.236.033zm35.884-26.124h10.186v-3.232h3.234v-3.236h-6.47v-6.471h-3.473l-.122 3.238h-3.235zm-3.344-.081l-.016-10.188-3.235.005-.004-3.236-3.238.008.011 6.468-6.471.011.006 3.476 3.237.115.005 3.232zm3.416 3.559l10.184-.098.032 3.232 3.236-.03.032 3.235-6.47.064.062 6.469-3.472.035-.152-3.236-3.237.032z"/><path fill="#FCEA18" d="M42.673 576.382h6.35v6.469h-6.35zM13.555 871.283h6.351v6.471h-6.351z"/><path fill="#1D9CD8" d="M14.633 1078.156H4.447v-3.238H1.213v-3.233h6.471v-6.471h3.473l.12 3.236h3.237zm3.344-.086l.014-10.184 3.238.005.005-3.235 3.235.004-.013 6.47 6.473.012-.005 3.471-3.236.115-.005 3.238zm-3.417 3.562l-10.184-.099-.03 3.232-3.237-.031-.031 3.238 6.469.063-.062 6.468 3.473.034.154-3.233 3.234.031zm35.884-26.124h10.188v-3.233h3.232v-3.237h-6.467v-6.472h-3.476l-.12 3.238h-3.237zm-3.343-.084l-.014-10.184-3.237.004-.005-3.236-3.235.005.008 6.471-6.471.01.008 3.476 3.235.113.004 3.235zm3.416 3.56l10.185-.1.03 3.235 3.238-.032.03 3.238-6.471.061.066 6.471-3.477.033-.151-3.232-3.236.03z"/><path fill="#FCEA18" d="M14.633 1097.746h6.351v6.471h-6.351zm29.117-23.006h6.353v6.471H43.75z"/><path fill="#1D9CD8" d="M14.273 1032.863H4.087v-3.236H.854v-3.237h6.471v-6.471h3.472l.121 3.235h3.236zm3.344-.084l.015-10.188 3.237.005.006-3.233 3.235.002-.012 6.47 6.473.01-.006 3.478-3.236.112-.005 3.238zm-3.416 3.559l-10.184-.1-.032 3.236-3.235-.033-.032 3.236 6.471.062-.063 6.47 3.474.034.151-3.234 3.233.032zm35.884-26.123h10.186v-3.235h3.235v-3.233h-6.472v-6.471h-3.472l-.12 3.233h-3.238zm-3.344-.087l-.017-10.183-3.235.004-.005-3.234-3.233.005.008 6.471-6.469.01.004 3.474 3.236.113.006 3.237zm3.417 3.563l10.184-.102.03 3.238 3.237-.033.031 3.235-6.469.064.063 6.471-3.474.033-.152-3.233-3.236.033z"/><path fill="#FCEA18" d="M14.273 1052.454h6.351v6.472h-6.351zm29.118-23.007h6.351v6.471h-6.351z"/><path fill="#1D9CD8" d="M13.915 987.574H3.729v-3.237H.494v-3.236h6.471v-6.471h3.473l.12 3.236h3.236zm3.343-.086l.014-10.188 3.238.008.005-3.236 3.236.004-.013 6.474 6.472.006-.004 3.477-3.236.114-.006 3.235zm-3.414 3.562l-10.186-.101-.034 3.235-3.234-.03-.031 3.232 6.47.067-.063 6.47 3.474.034.151-3.236 3.234.032zm35.884-26.124h10.183v-3.237h3.235v-3.232h-6.471v-6.472h-3.473l-.12 3.233h-3.235zm-3.344-.085l-.02-10.187-3.232.006-.006-3.233-3.236.004.009 6.471-6.47.009.006 3.473 3.236.116.005 3.237zm3.415 3.562l10.182-.103.034 3.237 3.234-.032.033 3.236-6.471.064.063 6.469-3.475.035-.15-3.233-3.236.031z"/><path fill="#FCEA18" d="M13.915 1007.164h6.35v6.471h-6.35zm29.117-23.006h6.35v6.469h-6.35z"/><path fill="#1D9CD8" d="M13.555 942.279H3.369v-3.237H.132v-3.234h6.474v-6.471h3.472l.121 3.233h3.233zm3.342-.086l.019-10.183 3.234.005.006-3.236 3.234.005-.011 6.47 6.473.009-.005 3.475-3.237.113-.004 3.238zm-3.415 3.562l-10.184-.099-.033 3.232-3.234-.029L0 952.093l6.471.065-.067 6.47 3.477.034.151-3.234 3.236.03zm35.884-26.124h10.186v-3.233h3.234v-3.237h-6.47v-6.47h-3.473l-.122 3.236h-3.235zm-3.344-.086l-.016-10.182-3.235.004-.004-3.235-3.238.004.011 6.471-6.471.012.006 3.472 3.237.117.005 3.234zm3.416 3.562l10.184-.099.032 3.236 3.236-.034.032 3.238-6.47.061.062 6.471-3.472.033-.152-3.232-3.237.031z"/><path fill="#FCEA18" d="M13.555 961.871h6.351v6.471h-6.351zm29.118-23.008h6.35v6.471h-6.35z"/><path fill="#1D9CD8" d="M13.915 896.986H3.729v-3.237H.494v-3.236h6.471v-6.471h3.473l.12 3.238h3.236zm3.343-.086l.014-10.185 3.238.005.005-3.234 3.236.002-.013 6.471 6.472.013-.004 3.475-3.236.112-.006 3.237zm-3.414 3.562l-10.186-.101-.034 3.237-3.234-.033-.031 3.235 6.47.063-.063 6.47 3.474.034.151-3.234 3.234.031zm35.884-26.124h10.183v-3.235h3.235v-3.232h-6.471V861.4h-3.473l-.12 3.232h-3.235zm-3.344-.086l-.02-10.184-3.232.004-.006-3.233-3.236.004.009 6.471-6.47.012.006 3.472 3.236.116.005 3.235zm3.415 3.563l10.182-.103.034 3.239 3.234-.032.033 3.234-6.471.063.063 6.471-3.475.034-.15-3.233-3.236.033z"/><path fill="#FCEA18" d="M13.915 916.577h6.35v6.472h-6.35zm29.117-23.007h6.35v6.471h-6.35z"/><path fill="#1D9CD8" d="M13.555 851.691H3.369v-3.233H.132v-3.238h6.474v-6.469h3.472l.121 3.234h3.233zm3.342-.086l.019-10.183 3.234.007.006-3.238 3.234.005-.011 6.471 6.473.01-.005 3.477-3.237.114-.004 3.233zm-3.415 3.562l-10.184-.099-.033 3.235-3.234-.031L0 861.507l6.471.063-.067 6.471 3.477.035.151-3.236 3.236.033zm35.884-26.124h10.186v-3.233h3.234v-3.234h-6.47v-6.471h-3.473l-.122 3.237h-3.235zm-3.344-.081l-.016-10.187-3.235.004-.004-3.235-3.238.006.011 6.469-6.471.012.006 3.474 3.237.116.005 3.232zm3.416 3.56l10.184-.1.032 3.234 3.236-.031.032 3.235-6.47.064.062 6.468-3.472.035-.152-3.234-3.237.03z"/><path fill="#FCEA18" d="M42.673 848.277h6.35v6.469h-6.35z"/><path fill="#282828" d="M50.472 269.152v-3.293h3.295v-6.973h-3.176v-3.114H43.62v3.174h-.12v.06h-2.675v-9.085h3.399v-3.116h3.232v-3.354h3.357v-3.557H47.08v3.356h-3.355v3.114H40.49v3.238h-2.96v-3.238h-3.236v-3.114h-3.353v-3.356h-3.418v-12.439h3.175v-3.235h3.237v-3.235h3.416v-3.477h2.434v3.176h3.356v3.176h6.968v-3.295h3.297v-6.97h-3.174v-3.116h-6.973v3.175h-.118v.06h-2.676v-9.087h3.399v-3.114h3.234v-3.354h3.355v-3.554h-3.732v3.352h-3.357v3.117h-3.232v3.233h-2.961v-3.226h-3.236v-3.119H30.58v-3.353h-3.415v-12.443h3.173v-3.233h3.237v-3.238h3.416v-3.472h2.434v3.171h3.357v3.179h6.967v-3.297h3.297v-6.971h-3.174v-3.117h-6.973v3.179h-.117v.06h-2.676v-9.087h3.399v-3.114h3.233v-3.357h3.357v-3.554h-3.734v3.354h-3.356v3.116h-3.234v3.233H36.81v-3.233h-3.234v-3.116h-3.354v-3.354h-3.416V136.87h3.175v-3.235h3.236v-3.233h3.413v-3.478h2.438v3.178h3.356v3.173h6.968v-3.295h3.296v-6.971h-3.174v-3.114H42.54v3.173h-.117v.06h-2.676v-9.084h3.399v-3.116h3.233v-3.353h3.356v-3.559h-3.733v3.357h-3.356v3.114h-3.237v3.237h-2.238v-3.237h-3.236v-3.114H30.58v-3.357h-3.415V91.578h3.173v-3.235h3.237v-3.235h3.416v-3.476h2.434v3.176h3.357v3.176h6.967v-3.295h3.297v-6.971h-3.174v-3.116h-6.973v3.176h-.117v.06h-2.676V68.75h3.399v-3.113h3.233v-3.354h3.357v-3.555h-3.734v3.353h-3.356v3.118h-3.234v3.233H36.81v-3.233h-3.234v-3.118h-3.354v-3.353h-3.416V46.285h3.175v-3.237h3.236v-3.233h3.413v-3.476h2.438v3.178h3.356v3.174h6.968v-3.295h3.296v-6.973h-3.174v-3.114H42.54v3.176h-.117v.06h-2.676V23.46h3.399v-3.12h3.233v-3.353h3.356V13.43h-3.733v3.356h-3.356V19.9h-3.237v3.236h-3.52v13.12h-2.995v3.237H29.48v3.233h-3.234v3.057h-2.737v-3.237h-3.234V39.43h-3.356v-3.353h-3.737v3.555h3.357v3.354h3.235v3.118h3.174v9.323h-2.555v-3.114h-6.97v3.173h-.119v.06H9.949v6.971h3.356v3.178h6.97V62.4h3.294v-3.415h2.916v3.295h3.353v3.354h3.237v3.113h3.177v12.804h-2.997v3.233h-3.417v3.237h-3.232v3.055h-2.734v-3.235h-3.237v-3.116H17.28v-3.353h-3.734v3.552H16.9v3.357h3.236v3.114h3.174v9.327h-2.554v-3.116h-6.97v3.176h-.119v.06H10.31v6.971h3.357v3.174h6.969v-3.293h3.294v-3.417h2.916v3.297H30.2v3.353h3.237v3.116h2.455v12.801h-2.995v3.236H29.48v3.233h-3.234v3.056h-2.737v-3.235h-3.234v-3.114h-3.356v-3.357h-3.737v3.557h3.357v3.354h3.235v3.116h3.174v9.325h-2.555v-3.116h-6.97v3.176h-.119v.06H9.949v6.97h3.356v3.176h6.97v-3.297h3.294v-3.412h2.916v3.293h3.353v3.357h3.237v3.114h3.177v12.803h-2.997v3.233h-3.417v3.236h-3.232v3.054h-2.734v-3.233h-3.237v-3.117H17.28v-3.354h-3.734v3.554H16.9v3.357h3.236v3.114h3.174v9.325h-2.554v-3.116h-6.97v3.176h-.119v.06H10.31v6.971h3.357v3.178h6.969v-3.297h3.294v-3.414h2.916v3.295H30.2v3.357h3.237v3.114h3.176v12.797h-2.996v3.233H30.2v3.238h-3.234v3.054H24.23v-3.235h-3.236v-3.116h-3.356v-3.354h-3.734v3.555h3.354v3.356h3.237v3.114h3.175v9.328h-2.556v-3.116h-6.971v3.176h-.12v.06h-3.355v6.971h3.355v3.173h6.971v-3.292h3.296v-3.417h2.913v3.295h3.355v3.354h3.236v3.116h3.176v12.802h-2.996v3.235h-3.416v3.236h-3.234v3.057H24.59v-3.238h-3.236V265.9h-3.356v-3.356h-3.733v3.557h3.353v3.354h3.237v3.117h3.174v9.325h-2.555v-3.116h-6.97v3.176h-.119v.06h-3.356v6.97h3.356v3.177h6.97v-3.297h3.295v-3.412h2.914v3.293h3.356v3.356h3.234v3.114h1.736v12.938h-2.995v3.238H29.48v3.233h-3.234v3.057h-2.737v-3.238h-3.234v-3.116h-3.356v-3.353h-3.737v3.555h3.357v3.354h3.235V318h3.174v9.323h-2.555v-3.114h-6.97v3.173h-.119v.06H9.949v6.97h3.356v3.178h6.97v-3.297h3.294v-3.414h2.916v3.294h3.353v3.354h3.237v3.114h3.177v12.803h-2.997v3.233h-3.417v3.238h-3.232v3.054h-2.734v-3.235h-3.237v-3.117H17.28v-3.352h-3.734v3.552H16.9v3.357h3.236v3.114h3.174v9.328h-2.554V369.5h-6.97v3.176h-.119v.06H10.31v6.971h3.357v3.173h6.969v-3.293h3.294v-3.416h2.916v3.297H30.2v3.353h3.237v3.116h2.455v12.801h-2.995v3.235H29.48v3.233h-3.234v3.057h-2.737v-3.236h-3.234v-3.114h-3.356v-3.356h-3.737v3.556h3.357v3.354h3.235v3.116h3.174v9.326h-2.555v-3.117h-6.97v3.176h-.119v.06H9.949v6.97h3.356v3.176h6.97v-3.297h3.294v-3.412h2.916v3.292h3.353v3.356h3.237v3.114h3.177v12.803h-2.997v3.233h-3.417v3.235h-3.232v3.054h-2.734v-3.233h-3.237v-3.116H17.28v-3.354h-3.734v3.555H16.9v3.356h3.236v3.114h3.174v9.325h-2.554v-3.116h-6.97v3.176h-.119v.06H10.31v6.971h3.357v3.178h6.969v-3.297h3.294v-3.415h2.916v3.295H30.2v3.356h3.237v3.114h3.176v12.797h-2.996v3.233H30.2v3.237h-3.234v3.054H24.23v-3.235h-3.236v-3.116h-3.356v-3.355h-3.734v3.555h3.354v3.357h3.237v3.114h3.175v9.327h-2.556v-3.116h-6.971v3.175h-.12v.06h-3.355v6.972h3.355v3.174h6.971v-3.293h3.296v-3.417h2.913v3.295h3.355v3.355h3.236v3.116h3.176v12.801h-2.996v3.236h-3.416v3.235h-3.234v3.057H24.59v-3.237h-3.236v-3.114h-3.356v-3.357h-3.733v3.557h3.353v3.355h3.237v3.116h3.174v9.325h-2.555v-3.115h-6.97v3.175h-.119v.06h-3.356v6.97h3.356v3.177h6.97v-3.297h3.295v-3.413h2.914v3.294h3.356v3.355h3.234v3.114h1.736v12.798h-2.995v3.238H29.48v3.232h-3.234v3.057h-2.737v-3.238h-3.234v-3.115h-3.356v-3.352h-3.737v3.554h3.357v3.354h3.235v3.118h3.174v9.323h-2.555v-3.114h-6.97v3.174h-.119v.06H9.949v6.971h3.356v3.178h6.97v-3.297h3.294v-3.414h2.916v3.295h3.353v3.354h3.237v3.114h3.177v12.803h-2.997v3.233h-3.417v3.237h-3.232v3.055h-2.734v-3.235h-3.237v-3.116H17.28v-3.352h-3.734v3.552H16.9v3.356h3.236v3.113h3.174v9.328h-2.554v-3.116h-6.97v3.176h-.119v.06H10.31v6.971h3.357v3.174h6.969v-3.293h3.294v-3.416h2.916v3.297H30.2v3.352h3.237v3.117h2.455v12.801h-2.995v3.235H29.48v3.233h-3.234v3.057h-2.737v-3.235h-3.234v-3.114h-3.356v-3.356h-3.737v3.557h3.357v3.354h3.235v3.116h3.174v9.325h-2.555v-3.116h-6.97v3.176h-.119v.06H9.949v6.971h3.356v3.176h6.97v-3.297h3.294v-3.412h2.916v3.293h3.353v3.356h3.237v3.114h3.177v12.804h-2.997v3.233h-3.417v3.234h-3.232v3.055h-2.734v-3.233h-3.237v-3.116H17.28v-3.354h-3.734v3.555H16.9v3.356h3.236v3.114h3.174v9.325h-2.554v-3.116h-6.97v3.176h-.119v.06H10.31v6.971h3.357v3.178h6.969v-3.297h3.294v-3.414h2.916v3.295H30.2v3.356h3.237v3.114h3.176v12.797h-2.996v3.232H30.2v3.238h-3.234v3.055H24.23v-3.235h-3.236v-3.116h-3.356v-3.354h-3.734v3.554h3.354v3.357h3.237v3.113h3.175v9.328h-2.556v-3.116h-6.971v3.176h-.12v.06h-3.355v6.971h3.355v3.174h6.971v-3.293h3.296v-3.416h2.913v3.294h3.355v3.354h3.236v3.117h3.176v12.801h-2.996v3.235h-3.416v3.235h-3.234v3.057H24.59v-3.238h-3.236v-3.113h-3.356v-3.356h-3.733v3.556h3.353v3.355h3.237v3.115h3.174v9.325h-2.555v-3.115h-6.97v3.175h-.119v.06h-3.356v6.97h3.356v3.178h6.97v-3.297h3.295V829.1h2.914v3.294h3.356v3.355h3.234v3.114h1.736V851.8h-2.995v3.238H29.48v3.232h-3.234v3.057h-2.737v-3.236h-3.234v-3.117h-3.356v-3.352h-3.737v3.554h3.357v3.354h3.235v3.119h3.174v9.322h-2.555v-3.113h-6.97v3.174h-.119v.059H9.949v6.971h3.356v3.178h6.97v-3.297h3.294v-3.414h2.916v3.295h3.353v3.355h3.237v3.113h3.177v12.804h-2.997v3.233h-3.417v3.236h-3.232v3.055h-2.734v-3.234h-3.237v-3.117H17.28v-3.352h-3.734v3.552H16.9v3.356h3.236v3.115h3.174v9.326h-2.554v-3.115h-6.97v3.175h-.119v.06H10.31v6.971h3.357v3.174h6.969v-3.293h3.294v-3.416h2.916v3.297H30.2v3.354h3.237v3.115h2.455v12.801h-2.995v3.236H29.48v3.232h-3.234v3.058h-2.737v-3.235h-3.234v-3.114h-3.356v-3.357h-3.737v3.558h3.357v3.354h3.235v3.116h3.174v9.325h-2.555v-3.115h-6.97v3.176h-.119v.059H9.949v6.971h3.356v3.176h6.97v-3.297h3.294v-3.412h2.916v3.293h3.353v3.357h3.237v3.113h3.177v12.804h-2.997v3.233h-3.417v3.235h-3.232v3.054h-2.734v-3.232h-3.237v-3.117H17.28v-3.354h-3.734v3.554H16.9v3.357h3.236v3.114h3.174v9.324h-2.554v-3.115h-6.97v3.176h-.119v.059H10.31v6.971h3.357v3.179h6.969v-3.298h3.294v-3.414h2.916v3.295H30.2v3.357h3.237v3.113h3.176v12.797h-2.996v3.234H30.2v3.236h-3.234v3.055H24.23v-3.235h-3.236v-3.116h-3.356v-3.354h-3.734v3.555h3.354v3.356h3.237v3.113h3.175v9.328h-2.556v-3.116h-6.971v3.176h-.12v.06h-3.355v6.971h3.355v3.174h6.971v-3.293h3.296v-3.416h2.913v3.295h3.355v3.354h3.236v3.116h3.176v12.801h-2.996v3.235h-3.416v3.235h-3.234v3.057H24.59v-3.237h-3.236v-3.114h-3.356v-3.356h-3.733v3.557h3.353V1085h3.237v3.116h3.174v9.324h-2.555v-3.114h-6.97v3.174h-.119v.061h-3.356v6.97h3.356v3.177h6.97v-3.297h3.295v-3.412h2.914v3.293h3.356v3.355h3.234v3.115h3.737v-3.555h-3.237v-3.117H31.3v-3.354h-3.415v-12.439h3.174v-3.237h3.236v-3.233h3.416v-3.476h2.434v3.176H43.5v3.174h6.972v-3.293h3.295v-6.973h-3.176v-3.114H43.62v3.174h-.12v.06h-2.675v-9.085h3.399v-3.116h3.232V1059h3.357v-3.557H47.08v3.357h-3.355v3.113H40.49v3.237h-2.96v-3.237h-3.236v-3.113h-3.353v-3.357h-3.418v-12.439h3.175v-3.235h3.237v-3.235h3.416v-3.477h2.434v3.177h3.356v3.176h6.968v-3.296h3.297v-6.971h-3.174v-3.115h-6.973v3.176h-.118v.059h-2.676v-9.086h3.399v-3.114h3.234v-3.354h3.355v-3.555h-3.732v3.353h-3.357v3.116h-3.232v3.232h-2.961v-3.226h-3.236v-3.118H30.58v-3.354h-3.415v-12.443h3.173v-3.232h3.237v-3.238h3.416v-3.472h2.434v3.172h3.357v3.178h6.967v-3.297h3.297v-6.971h-3.174v-3.116h-6.973v3.178h-.117v.06h-2.676v-9.087h3.399v-3.113h3.233v-3.357h3.357v-3.555h-3.734v3.355h-3.356v3.115h-3.234v3.234H36.81v-3.234h-3.234v-3.115h-3.354v-3.355h-3.416v-12.44h3.175v-3.235h3.236v-3.234h3.413v-3.477h2.438v3.177h3.356v3.174h6.968v-3.296h3.296v-6.97h-3.174v-3.114H42.54v3.174h-.117v.06h-2.676v-9.085h3.399v-3.115h3.233v-3.354h3.356v-3.559h-3.733v3.357h-3.356v3.113h-3.237v3.238h-2.238v-3.238h-3.236v-3.113H30.58v-3.357h-3.415v-12.439h3.173v-3.234h3.237v-3.236h3.416v-3.475h2.434v3.175h3.357v3.176h6.967v-3.295h3.297v-6.971h-3.174v-3.116h-6.973v3.176h-.117v.06h-2.676v-9.087h3.399v-3.113h3.233v-3.355h3.357v-3.555h-3.734v3.354h-3.356v3.117h-3.234v3.233H36.81v-3.233h-3.234v-3.117h-3.354v-3.354h-3.416V861.84h3.175v-3.236h3.236v-3.234h3.413v-3.476h2.438v3.179h3.356v3.173h6.968v-3.295h3.296v-6.973h-3.174v-3.114H42.54v3.176h-.117v.061h-2.676v-9.086h3.399v-3.117h3.233v-3.354h3.356v-3.557h-3.733v3.357h-3.356v3.113h-3.237v3.236H37.89v-3.373h-3.237v-3.117h-3.354v-3.354h-3.415V816.41h3.174v-3.238h3.236v-3.232h3.416v-3.477h2.434v3.177H43.5v3.173h6.972v-3.292h3.295v-6.974h-3.176v-3.114H43.62v3.174h-.12v.06h-2.675v-9.084h3.399v-3.117h3.232v-3.354h3.357v-3.556H47.08v3.356h-3.355v3.114H40.49v3.237h-2.96v-3.237h-3.236v-3.114h-3.353v-3.356h-3.418v-12.439h3.175v-3.235h3.237v-3.235h3.416v-3.477h2.434v3.176h3.356v3.176h6.968v-3.295h3.297v-6.971h-3.174v-3.116h-6.973v3.176h-.118v.06h-2.676v-9.086h3.399v-3.115h3.234v-3.354h3.355v-3.555h-3.732v3.352h-3.357v3.117h-3.232v3.232h-2.961v-3.227h-3.236v-3.118H30.58v-3.353h-3.415v-12.443h3.173v-3.233h3.237v-3.237h3.416v-3.472h2.434v3.171h3.357v3.179h6.967v-3.298h3.297v-6.971h-3.174v-3.115h-6.973v3.178h-.117v.06h-2.676v-9.087h3.399v-3.114h3.233v-3.356h3.357v-3.555h-3.734v3.355h-3.356v3.115h-3.234v3.233H36.81v-3.233h-3.234v-3.115h-3.354v-3.355h-3.416v-12.441h3.175V677.3h3.236v-3.233h3.413v-3.479h2.438v3.179h3.356v3.174h6.968v-3.296h3.296v-6.97h-3.174v-3.114H42.54v3.174h-.117v.06h-2.676v-9.085h3.399v-3.117h3.233v-3.352h3.356v-3.559h-3.733v3.356h-3.356v3.114h-3.237v3.237h-2.238v-3.237h-3.236v-3.114H30.58v-3.356h-3.415v-12.439h3.173v-3.235h3.237v-3.235h3.416v-3.477h2.434v3.177h3.357v3.176h6.967v-3.296h3.297v-6.971h-3.174v-3.115h-6.973v3.176h-.117v.059h-2.676v-9.086h3.399v-3.114h3.233v-3.354h3.357v-3.555h-3.734v3.352h-3.356v3.119h-3.234v3.233H36.81v-3.233h-3.234v-3.119h-3.354v-3.352h-3.416v-12.441h3.175v-3.238h3.236v-3.232h3.413v-3.476h2.438v3.177h3.356v3.174h6.968v-3.294h3.296v-6.974h-3.174v-3.113H42.54v3.176h-.117v.059h-2.676v-9.084h3.399v-3.119h3.233v-3.352h3.356v-3.557h-3.733v3.356h-3.356v3.114h-3.237v3.235H37.89v-3.231h-3.237v-3.117h-3.354v-3.354h-3.415v-12.438h3.174v-3.237h3.236v-3.233h3.416v-3.476h2.434v3.176H43.5v3.174h6.972v-3.293h3.295v-6.973h-3.176v-3.114H43.62v3.174h-.12v.06h-2.675v-9.084h3.399V518.7h3.232v-3.355h3.357v-3.557H47.08v3.357h-3.355v3.114H40.49v3.237h-2.96v-3.237h-3.236v-3.114h-3.353v-3.357h-3.418v-12.44h3.175v-3.235h3.237v-3.235h3.416v-3.476h2.434v3.175h3.356v3.176h6.968v-3.295h3.297v-6.971h-3.174v-3.116h-6.973v3.176h-.118v.06h-2.676v-9.087h3.399v-3.114h3.234v-3.355h3.355v-3.554h-3.732v3.353h-3.357v3.116h-3.232v3.233h-2.961v-3.227h-3.236v-3.119H30.58v-3.352h-3.415v-12.444h3.173v-3.233h3.237v-3.237h3.416v-3.472h2.434v3.171h3.357v3.178h6.967v-3.297h3.297v-6.971h-3.174v-3.116h-6.973v3.178h-.117v.06h-2.676v-9.087h3.399v-3.114h3.233v-3.356h3.357v-3.554h-3.734v3.354h-3.356v3.117h-3.234v3.233H36.81v-3.233h-3.234v-3.117h-3.354v-3.354h-3.416v-12.441h3.175v-3.236h3.236v-3.233h3.413v-3.478h2.438v3.178h3.356v3.173h6.968v-3.294h3.296v-6.971h-3.174v-3.114H42.54v3.173h-.117v.06h-2.676v-9.084h3.399v-3.116h3.233v-3.353h3.356v-3.558h-3.733v3.356h-3.356v3.114h-3.237v3.238h-2.238v-3.238h-3.236v-3.114H30.58v-3.356h-3.415v-12.439h3.173v-3.235h3.237v-3.236h3.416v-3.476h2.434v3.176h3.357v3.175h6.967v-3.294h3.297v-6.971h-3.174v-3.116h-6.973v3.176h-.117v.06h-2.676v-9.087h3.399v-3.114h3.233v-3.354h3.357v-3.555h-3.734v3.353h-3.356v3.119h-3.234v3.233H36.81v-3.233h-3.234v-3.119h-3.354v-3.353h-3.416v-12.441h3.175v-3.238h3.236v-3.233h3.413v-3.476h2.438v3.178h3.356v3.174h6.968v-3.295h3.296v-6.973h-3.174v-3.114H42.54v3.176h-.117v.06h-2.676v-9.084h3.399v-3.119h3.233v-3.353h3.356v-3.557h-3.733v3.357h-3.356v3.114h-3.237v3.235H37.89v-3.373h-3.237v-3.117h-3.354v-3.354h-3.415v-12.44h3.174v-3.238h3.236v-3.233h3.416v-3.476h2.434v3.176H43.5v3.174h6.972zm-.981-49.028H43.64v-5.971h5.851v5.971zm-.359-45.291h-5.85v-5.969h5.85v5.969zm-.36-45.293h-5.85v-5.971h5.85v5.971zm.36-45.293h-5.85v-5.971h5.85v5.971zm-.36-45.295h-5.85v-5.968h5.85v5.968zM19.656 61.959h-5.851v-5.971h5.851v5.971zm.359 45.295h-5.85v-5.971h5.85v5.971zm-.359 45.293h-5.851v-5.971h5.851v5.971zm.359 45.293h-5.85v-5.971h5.85v5.971zm.359 45.291h-5.851v-5.971h5.851v5.971zm.36 45.292h-5.851v-5.97h5.851v5.97zm-1.078 45.431h-5.851v-5.971h5.851v5.971zm.359 45.294h-5.85v-5.97h5.85v5.97zm-.359 45.293h-5.851v-5.97h5.851v5.97zm.359 45.294h-5.85v-5.971h5.85v5.971zm.359 45.291h-5.851v-5.972h5.851v5.972zm.36 45.292h-5.851v-5.97h5.851v5.97zm-1.078 45.289h-5.851v-5.97h5.851v5.97zm.359 45.296h-5.85v-5.971h5.85v5.971zm-.359 45.294h-5.851v-5.972h5.851v5.972zm.359 45.292h-5.85v-5.971h5.85v5.971zm.359 45.29h-5.851v-5.97h5.851v5.97zm.36 45.293h-5.851v-5.971h5.851v5.971zm-1.078 45.431h-5.851v-5.971h5.851v5.971zm.359 45.295h-5.85v-5.972h5.85v5.972zm-.359 45.293h-5.851v-5.971h5.851v5.971zm.359 45.293h-5.85v-5.971h5.85v5.971zm.359 45.291h-5.851v-5.972h5.851v5.972zm.36 45.291h-5.851v-5.971h5.851v5.971zm29.119-23.006H44v-5.971h5.853v5.971zm-.362-45.293H43.64v-5.971h5.851v5.971zm-.359-45.291h-5.85v-5.969h5.85v5.969zm-.36-45.293h-5.85v-5.971h5.85v5.971zm.36-45.292h-5.85v-5.971h5.85v5.971zm-.36-45.295h-5.85v-5.969h5.85v5.969zm1.081-45.43H44v-5.972h5.853v5.972zm-.362-45.294H43.64v-5.971h5.851v5.971zm-.359-45.29h-5.85v-5.969h5.85v5.969zm-.36-45.293h-5.85v-5.971h5.85v5.971zm.36-45.293h-5.85v-5.971h5.85v5.971zm-.36-45.295h-5.85v-5.969h5.85v5.969zm1.081-45.289H44v-5.971h5.853v5.971zm-.362-45.294H43.64v-5.971h5.851v5.971zm-.359-45.29h-5.85v-5.969h5.85v5.969zm-.36-45.293h-5.85v-5.971h5.85v5.971zm.36-45.293h-5.85v-5.971h5.85v5.971zm-.36-45.295h-5.85v-5.969h5.85v5.969zm1.081-45.43H44v-5.97h5.853v5.97z"/></svg>