<?xml version="1.0" encoding="utf-8"?>
<!-- Generator: Adobe Illustrator 16.0.0, SVG Export Plug-In . SVG Version: 6.00 Build 0)  -->
<!DOCTYPE svg PUBLIC "-//W3C//DTD SVG 1.1//EN" "http://www.w3.org/Graphics/SVG/1.1/DTD/svg11.dtd" [
	<!ENTITY ns_extend "http://ns.adobe.com/Extensibility/1.0/">
	<!ENTITY ns_ai "http://ns.adobe.com/AdobeIllustrator/10.0/">
	<!ENTITY ns_graphs "http://ns.adobe.com/Graphs/1.0/">
	<!ENTITY ns_vars "http://ns.adobe.com/Variables/1.0/">
	<!ENTITY ns_imrep "http://ns.adobe.com/ImageReplacement/1.0/">
	<!ENTITY ns_sfw "http://ns.adobe.com/SaveForWeb/1.0/">
	<!ENTITY ns_custom "http://ns.adobe.com/GenericCustomNamespace/1.0/">
	<!ENTITY ns_adobe_xpath "http://ns.adobe.com/XPath/1.0/">
]>
<svg version="1.1" id="Layer_1" xmlns:x="&ns_extend;" xmlns:i="&ns_ai;" xmlns:graph="&ns_graphs;"
	 xmlns="http://www.w3.org/2000/svg" xmlns:xlink="http://www.w3.org/1999/xlink" x="0px" y="0px" width="487.533px"
	 height="55.686px" viewBox="0 0 487.533 55.686" enable-background="new 0 0 487.533 55.686" xml:space="preserve">
<metadata>
	<sfw  xmlns="&ns_sfw;">
		<slices></slices>
		<sliceSourceBounds  width="487.533" height="56.64" y="295.952" x="56.904" bottomLeftOrigin="true"></sliceSourceBounds>
	</sfw>
</metadata>
<rect x="432.531" y="16.715" fill="#282828" stroke="#282828" stroke-width="0.5" width="5.727" height="2.969"/>
<rect x="432.426" y="8.072" fill="#282828" stroke="#282828" stroke-width="0.5" width="5.727" height="2.97"/>
<rect x="429.613" y="11.042" fill="#282828" stroke="#282828" stroke-width="0.5" width="2.813" height="5.726"/>
<rect x="438.205" y="11.147" fill="#282828" stroke="#282828" stroke-width="0.5" width="2.809" height="5.727"/>
<rect x="432.479" y="11.042" fill="#FDEB1B" stroke="#3D3D3B" stroke-width="0.5" width="5.727" height="5.62"/>
<polygon fill="#209DD9" points="255.123,11.996 255.123,2.981 257.988,2.981 257.988,0.119 260.85,0.119 260.85,5.846 
	266.576,5.846 266.576,8.92 263.713,9.025 263.713,11.891 "/>
<polygon fill="#209DD9" points="255.199,14.955 264.211,14.968 264.207,17.833 267.07,17.838 267.066,20.701 261.34,20.689 
	261.33,26.418 258.258,26.413 258.156,23.55 255.291,23.545 "/>
<polygon fill="#209DD9" points="252.047,11.932 252.135,2.919 249.273,2.892 249.301,0.027 246.436,0 246.381,5.726 240.655,5.67 
	240.625,8.744 243.486,8.88 243.459,11.742 "/>
<rect x="252.26" y="11.891" fill="#282828" stroke="#282828" stroke-width="0.5" width="2.705" height="2.861"/>
<rect x="249.291" y="14.857" fill="#282828" stroke="#282828" stroke-width="0.5" width="2.703" height="2.865"/>
<rect x="246.533" y="17.723" fill="#282828" stroke="#282828" stroke-width="0.5" width="2.705" height="2.863"/>
<polygon fill="#209DD9" points="275.166,43.689 275.166,52.704 278.027,52.704 278.027,55.565 280.893,55.565 280.893,49.842 
	286.619,49.842 286.619,46.766 283.754,46.659 283.754,43.795 "/>
<polygon fill="#209DD9" points="275.24,40.73 284.254,40.717 284.25,37.853 287.113,37.848 287.109,34.985 281.383,34.992 
	281.373,29.267 278.297,29.273 278.197,32.136 275.334,32.14 "/>
<polygon fill="#209DD9" points="272.09,43.753 272.178,52.767 269.316,52.794 269.344,55.658 266.479,55.686 266.424,49.959 
	260.697,50.017 260.668,46.94 263.529,46.807 263.502,43.943 "/>
<rect x="272.303" y="40.933" fill="#282828" stroke="#282828" stroke-width="0.5" width="2.705" height="2.862"/>
<rect x="269.334" y="37.963" fill="#282828" stroke="#282828" stroke-width="0.5" width="2.703" height="2.861"/>
<rect x="266.576" y="35.101" fill="#282828" stroke="#282828" stroke-width="0.5" width="2.705" height="2.862"/>
<rect x="232.219" y="23.66" fill="#282828" stroke="#282828" stroke-width="0.5" width="2.704" height="2.864"/>
<rect x="229.249" y="26.631" fill="#282828" stroke="#282828" stroke-width="0.5" width="2.706" height="2.861"/>
<rect x="226.493" y="29.492" fill="#282828" stroke="#282828" stroke-width="0.5" width="2.703" height="2.865"/>
<rect x="246.373" y="23.448" fill="#282828" stroke="#282828" stroke-width="0.5" width="2.705" height="2.862"/>
<rect x="249.238" y="26.311" fill="#282828" stroke="#282828" stroke-width="0.5" width="2.703" height="2.864"/>
<rect x="252.1" y="29.334" fill="#282828" stroke="#282828" stroke-width="0.5" width="2.705" height="2.863"/>
<rect x="235.133" y="20.531" fill="#282828" stroke="#282828" stroke-width="0.5" width="11.24" height="2.971"/>
<rect x="255.176" y="31.985" fill="#282828" stroke="#282828" stroke-width="0.5" width="11.24" height="2.969"/>
<g>
	<rect x="232.113" y="17.67" fill="#282828" stroke="#282828" stroke-width="0.5" width="5.726" height="2.969"/>
	<rect x="232.007" y="9.025" fill="#282828" stroke="#282828" stroke-width="0.5" width="5.726" height="2.971"/>
	<rect x="229.195" y="11.996" fill="#282828" stroke="#282828" stroke-width="0.5" width="2.812" height="5.727"/>
	<rect x="237.786" y="12.102" fill="#282828" stroke="#282828" stroke-width="0.5" width="2.81" height="5.727"/>
	<rect x="232.06" y="11.996" fill="#FDEB1B" stroke="#3D3D3B" stroke-width="0.5" width="5.726" height="5.62"/>
</g>
<rect x="252.471" y="43.438" fill="#282828" stroke="#282828" stroke-width="0.5" width="5.729" height="2.97"/>
<rect x="252.365" y="34.794" fill="#282828" stroke="#282828" stroke-width="0.5" width="5.729" height="2.971"/>
<rect x="249.557" y="37.765" fill="#282828" stroke="#282828" stroke-width="0.5" width="2.811" height="5.727"/>
<rect x="258.146" y="37.871" fill="#282828" stroke="#282828" stroke-width="0.5" width="2.809" height="5.726"/>
<rect x="252.42" y="37.765" fill="#FDEB1B" stroke="#3D3D3B" stroke-width="0.5" width="5.727" height="5.621"/>
<polygon fill="#209DD9" points="295.207,11.678 295.207,2.663 298.07,2.663 298.07,-0.198 300.936,-0.198 300.936,5.528 
	306.662,5.528 306.662,8.602 303.799,8.708 303.799,11.572 "/>
<polygon fill="#209DD9" points="295.281,14.637 304.297,14.65 304.293,17.515 307.154,17.52 307.152,20.383 301.426,20.372 
	301.418,26.101 298.34,26.096 298.24,23.231 295.375,23.228 "/>
<polygon fill="#209DD9" points="292.131,11.614 292.221,2.601 289.355,2.573 289.385,-0.291 286.521,-0.318 286.467,5.408 
	280.74,5.353 280.711,8.427 283.572,8.561 283.545,11.422 "/>
<rect x="292.346" y="11.572" fill="#282828" stroke="#282828" stroke-width="0.5" width="2.703" height="2.862"/>
<rect x="289.375" y="14.54" fill="#282828" stroke="#282828" stroke-width="0.5" width="2.705" height="2.864"/>
<rect x="286.619" y="17.404" fill="#282828" stroke="#282828" stroke-width="0.5" width="2.703" height="2.864"/>
<polygon fill="#209DD9" points="315.25,43.371 315.25,52.386 318.113,52.386 318.113,55.248 320.975,55.248 320.975,49.521 
	326.701,49.521 326.701,46.447 323.84,46.342 323.84,43.477 "/>
<polygon fill="#209DD9" points="315.326,40.412 324.34,40.396 324.336,37.534 327.197,37.529 327.193,34.668 321.467,34.675 
	321.457,28.949 318.383,28.954 318.283,31.817 315.418,31.822 "/>
<polygon fill="#209DD9" points="312.174,43.436 312.264,52.448 309.398,52.476 309.428,55.34 306.564,55.367 306.508,49.642 
	300.781,49.698 300.752,46.623 303.613,46.489 303.584,43.625 "/>
<rect x="312.387" y="40.615" fill="#282828" stroke="#282828" stroke-width="0.5" width="2.703" height="2.861"/>
<rect x="309.418" y="37.645" fill="#282828" stroke="#282828" stroke-width="0.5" width="2.705" height="2.862"/>
<rect x="306.662" y="34.783" fill="#282828" stroke="#282828" stroke-width="0.5" width="2.703" height="2.861"/>
<rect x="272.303" y="23.342" fill="#282828" stroke="#282828" stroke-width="0.5" width="2.705" height="2.865"/>
<rect x="269.334" y="26.311" fill="#282828" stroke="#282828" stroke-width="0.5" width="2.703" height="2.864"/>
<rect x="266.576" y="29.175" fill="#282828" stroke="#282828" stroke-width="0.5" width="2.705" height="2.864"/>
<rect x="286.459" y="23.13" fill="#282828" stroke="#282828" stroke-width="0.5" width="2.703" height="2.862"/>
<rect x="289.322" y="25.992" fill="#282828" stroke="#282828" stroke-width="0.5" width="2.705" height="2.864"/>
<rect x="292.186" y="29.016" fill="#282828" stroke="#282828" stroke-width="0.5" width="2.703" height="2.864"/>
<rect x="275.219" y="20.214" fill="#282828" stroke="#282828" stroke-width="0.5" width="11.24" height="2.969"/>
<rect x="295.262" y="31.667" fill="#282828" stroke="#282828" stroke-width="0.5" width="11.242" height="2.969"/>
<g>
	<rect x="272.195" y="17.351" fill="#282828" stroke="#282828" stroke-width="0.5" width="5.727" height="2.971"/>
	<rect x="272.09" y="8.708" fill="#282828" stroke="#282828" stroke-width="0.5" width="5.727" height="2.97"/>
	<rect x="269.281" y="11.678" fill="#282828" stroke="#282828" stroke-width="0.5" width="2.809" height="5.727"/>
	<rect x="277.869" y="11.783" fill="#282828" stroke="#282828" stroke-width="0.5" width="2.811" height="5.727"/>
	<rect x="272.143" y="11.678" fill="#FDEB1B" stroke="#3D3D3B" stroke-width="0.5" width="5.727" height="5.62"/>
</g>
<g>
	<rect x="292.557" y="43.12" fill="#282828" stroke="#282828" stroke-width="0.5" width="5.727" height="2.968"/>
	<rect x="292.451" y="34.477" fill="#282828" stroke="#282828" stroke-width="0.5" width="5.727" height="2.97"/>
	<rect x="289.641" y="37.446" fill="#282828" stroke="#282828" stroke-width="0.5" width="2.811" height="5.725"/>
	<rect x="298.23" y="37.551" fill="#282828" stroke="#282828" stroke-width="0.5" width="2.811" height="5.729"/>
	<rect x="292.504" y="37.446" fill="#FDEB1B" stroke="#3D3D3B" stroke-width="0.5" width="5.727" height="5.62"/>
</g>
<polygon fill="#209DD9" points="335.287,11.36 335.287,2.346 338.152,2.346 338.152,-0.517 341.016,-0.517 341.016,5.21 
	346.742,5.21 346.742,8.283 343.879,8.39 343.879,11.254 "/>
<polygon fill="#209DD9" points="335.363,14.319 344.379,14.332 344.373,17.197 347.236,17.201 347.232,20.065 341.504,20.054 
	341.498,25.782 338.422,25.777 338.32,22.914 335.457,22.909 "/>
<polygon fill="#209DD9" points="332.211,11.298 332.301,2.283 329.438,2.253 329.465,-0.609 326.604,-0.637 326.545,5.09 
	320.818,5.034 320.789,8.108 323.652,8.242 323.623,11.104 "/>
<rect x="332.426" y="11.254" fill="#282828" stroke="#282828" stroke-width="0.5" width="2.703" height="2.862"/>
<rect x="329.455" y="14.222" fill="#282828" stroke="#282828" stroke-width="0.5" width="2.705" height="2.864"/>
<rect x="326.699" y="17.086" fill="#282828" stroke="#282828" stroke-width="0.5" width="2.703" height="2.864"/>
<polygon fill="#209DD9" points="355.33,43.054 355.33,52.067 358.195,52.067 358.195,54.93 361.057,54.93 361.057,49.203 
	366.783,49.203 366.783,46.13 363.922,46.023 363.922,43.159 "/>
<polygon fill="#209DD9" points="355.406,40.095 364.422,40.078 364.416,37.217 367.277,37.212 367.273,34.348 361.547,34.356 
	361.539,28.631 358.465,28.635 358.363,31.5 355.498,31.504 "/>
<polygon fill="#209DD9" points="352.254,43.117 352.344,52.13 349.48,52.158 349.508,55.021 346.645,55.05 346.588,49.323 
	340.863,49.379 340.832,46.305 343.693,46.171 343.666,43.307 "/>
<rect x="352.469" y="40.297" fill="#282828" stroke="#282828" stroke-width="0.5" width="2.703" height="2.862"/>
<rect x="349.498" y="37.327" fill="#282828" stroke="#282828" stroke-width="0.5" width="2.705" height="2.861"/>
<rect x="346.742" y="34.465" fill="#282828" stroke="#282828" stroke-width="0.5" width="2.703" height="2.862"/>
<rect x="312.383" y="23.024" fill="#282828" stroke="#282828" stroke-width="0.5" width="2.703" height="2.863"/>
<rect x="309.412" y="25.992" fill="#282828" stroke="#282828" stroke-width="0.5" width="2.707" height="2.864"/>
<rect x="306.656" y="28.856" fill="#282828" stroke="#282828" stroke-width="0.5" width="2.703" height="2.864"/>
<rect x="326.541" y="22.813" fill="#282828" stroke="#282828" stroke-width="0.5" width="2.703" height="2.861"/>
<rect x="329.402" y="25.674" fill="#282828" stroke="#282828" stroke-width="0.5" width="2.705" height="2.865"/>
<rect x="332.268" y="28.697" fill="#282828" stroke="#282828" stroke-width="0.5" width="2.701" height="2.864"/>
<rect x="315.299" y="19.895" fill="#282828" stroke="#282828" stroke-width="0.5" width="11.242" height="2.971"/>
<rect x="335.34" y="31.35" fill="#282828" stroke="#282828" stroke-width="0.5" width="11.244" height="2.969"/>
<g>
	<rect x="312.277" y="17.033" fill="#282828" stroke="#282828" stroke-width="0.5" width="5.727" height="2.968"/>
	<rect x="312.172" y="8.39" fill="#282828" stroke="#282828" stroke-width="0.5" width="5.727" height="2.971"/>
	<rect x="309.359" y="11.36" fill="#282828" stroke="#282828" stroke-width="0.5" width="2.813" height="5.726"/>
	<rect x="317.951" y="11.466" fill="#282828" stroke="#282828" stroke-width="0.5" width="2.811" height="5.727"/>
	<rect x="312.225" y="11.36" fill="#FDEB1B" stroke="#3D3D3B" stroke-width="0.5" width="5.727" height="5.62"/>
</g>
<g>
	<rect x="332.639" y="42.803" fill="#282828" stroke="#282828" stroke-width="0.5" width="5.727" height="2.968"/>
	<rect x="332.533" y="34.158" fill="#282828" stroke="#282828" stroke-width="0.5" width="5.725" height="2.971"/>
	<rect x="329.721" y="37.129" fill="#282828" stroke="#282828" stroke-width="0.5" width="2.813" height="5.724"/>
	<rect x="338.311" y="37.232" fill="#282828" stroke="#282828" stroke-width="0.5" width="2.813" height="5.729"/>
	<rect x="332.586" y="37.129" fill="#FDEB1B" stroke="#3D3D3B" stroke-width="0.5" width="5.725" height="5.62"/>
</g>
<polygon fill="#209DD9" points="375.373,11.042 375.373,2.027 378.238,2.027 378.238,-0.837 381.1,-0.837 381.1,4.893 
	386.826,4.893 386.826,7.965 383.965,8.072 383.965,10.934 "/>
<polygon fill="#209DD9" points="375.449,14 384.461,14.017 384.457,16.879 387.32,16.884 387.316,19.746 381.59,19.736 
	381.582,25.465 378.508,25.46 378.406,22.596 375.541,22.592 "/>
<polygon fill="#209DD9" points="372.297,10.978 372.385,1.965 369.523,1.936 369.551,-0.927 366.688,-0.954 366.631,4.772 
	360.904,4.714 360.875,7.791 363.736,7.924 363.709,10.788 "/>
<rect x="372.51" y="10.934" fill="#282828" stroke="#282828" stroke-width="0.5" width="2.705" height="2.864"/>
<rect x="369.541" y="13.904" fill="#282828" stroke="#282828" stroke-width="0.5" width="2.703" height="2.863"/>
<rect x="366.783" y="16.768" fill="#282828" stroke="#282828" stroke-width="0.5" width="2.705" height="2.862"/>
<polygon fill="#209DD9" points="395.416,42.735 395.416,51.749 398.277,51.749 398.277,54.611 401.143,54.611 401.143,48.886 
	406.869,48.886 406.869,45.812 404.004,45.703 404.004,42.841 "/>
<polygon fill="#209DD9" points="395.492,39.776 404.504,39.761 404.5,36.898 407.363,36.894 407.359,34.029 401.633,34.039 
	401.623,28.313 398.549,28.317 398.445,31.182 395.584,31.187 "/>
<polygon fill="#209DD9" points="392.34,42.798 392.428,51.812 389.564,51.84 389.594,54.703 386.729,54.731 386.674,49.006 
	380.947,49.061 380.918,45.987 383.779,45.854 383.752,42.988 "/>
<rect x="392.551" y="39.979" fill="#282828" stroke="#282828" stroke-width="0.5" width="2.707" height="2.861"/>
<rect x="389.584" y="37.009" fill="#282828" stroke="#282828" stroke-width="0.5" width="2.703" height="2.862"/>
<rect x="386.826" y="34.145" fill="#282828" stroke="#282828" stroke-width="0.5" width="2.705" height="2.864"/>
<rect x="352.469" y="22.706" fill="#282828" stroke="#282828" stroke-width="0.5" width="2.703" height="2.864"/>
<rect x="349.498" y="25.674" fill="#282828" stroke="#282828" stroke-width="0.5" width="2.705" height="2.865"/>
<rect x="346.742" y="28.539" fill="#282828" stroke="#282828" stroke-width="0.5" width="2.703" height="2.861"/>
<rect x="366.625" y="22.494" fill="#282828" stroke="#282828" stroke-width="0.5" width="2.705" height="2.862"/>
<rect x="369.488" y="25.356" fill="#282828" stroke="#282828" stroke-width="0.5" width="2.703" height="2.864"/>
<rect x="372.35" y="28.379" fill="#282828" stroke="#282828" stroke-width="0.5" width="2.705" height="2.862"/>
<rect x="355.383" y="19.577" fill="#282828" stroke="#282828" stroke-width="0.5" width="11.242" height="2.97"/>
<rect x="375.428" y="31.029" fill="#282828" stroke="#282828" stroke-width="0.5" width="11.238" height="2.971"/>
<g>
	<rect x="352.363" y="16.715" fill="#282828" stroke="#282828" stroke-width="0.5" width="5.725" height="2.969"/>
	<rect x="352.256" y="8.072" fill="#282828" stroke="#282828" stroke-width="0.5" width="5.727" height="2.97"/>
	<rect x="349.445" y="11.042" fill="#282828" stroke="#282828" stroke-width="0.5" width="2.811" height="5.726"/>
	<rect x="358.035" y="11.147" fill="#282828" stroke="#282828" stroke-width="0.5" width="2.811" height="5.727"/>
	<rect x="352.309" y="11.042" fill="#FDEB1B" stroke="#3D3D3B" stroke-width="0.5" width="5.727" height="5.62"/>
</g>
<g>
	<rect x="372.723" y="42.483" fill="#282828" stroke="#282828" stroke-width="0.5" width="5.727" height="2.969"/>
	<rect x="372.615" y="33.841" fill="#282828" stroke="#282828" stroke-width="0.5" width="5.729" height="2.97"/>
	<rect x="369.807" y="36.811" fill="#282828" stroke="#282828" stroke-width="0.5" width="2.811" height="5.725"/>
	<rect x="378.396" y="36.915" fill="#282828" stroke="#282828" stroke-width="0.5" width="2.809" height="5.729"/>
	<rect x="372.67" y="36.811" fill="#FDEB1B" stroke="#3D3D3B" stroke-width="0.5" width="5.727" height="5.62"/>
</g>
<polygon fill="#209DD9" points="415.457,11.36 415.457,2.346 418.322,2.346 418.322,-0.517 421.186,-0.517 421.186,5.21 
	426.912,5.21 426.912,8.283 424.047,8.39 424.047,11.254 "/>
<polygon fill="#209DD9" points="415.533,14.319 424.547,14.332 424.543,17.197 427.404,17.201 427.402,20.065 421.676,20.054 
	421.664,25.782 418.59,25.777 418.49,22.914 415.625,22.909 "/>
<polygon fill="#209DD9" points="412.381,11.298 412.471,2.283 409.605,2.253 409.635,-0.609 406.771,-0.637 406.717,5.09 
	400.99,5.034 400.961,8.108 403.822,8.242 403.795,11.104 "/>
<rect x="412.596" y="11.254" fill="#282828" stroke="#282828" stroke-width="0.5" width="2.701" height="2.862"/>
<rect x="409.625" y="14.222" fill="#282828" stroke="#282828" stroke-width="0.5" width="2.705" height="2.864"/>
<rect x="406.869" y="17.086" fill="#282828" stroke="#282828" stroke-width="0.5" width="2.703" height="2.864"/>
<polygon fill="#209DD9" points="435.5,43.054 435.5,52.067 438.363,52.067 438.363,54.93 441.225,54.93 441.225,49.203 
	446.951,49.203 446.951,46.13 444.09,46.023 444.09,43.159 "/>
<polygon fill="#209DD9" points="435.576,40.095 444.59,40.078 444.586,37.217 447.447,37.212 447.443,34.348 441.717,34.356 
	441.707,28.631 438.633,28.635 438.531,31.5 435.668,31.504 "/>
<polygon fill="#209DD9" points="432.424,43.117 432.514,52.13 429.648,52.158 429.676,55.021 426.814,55.05 426.758,49.323 
	421.031,49.379 421.002,46.305 423.863,46.171 423.834,43.307 "/>
<rect x="432.637" y="40.297" fill="#282828" stroke="#282828" stroke-width="0.5" width="2.703" height="2.862"/>
<rect x="429.668" y="37.327" fill="#282828" stroke="#282828" stroke-width="0.5" width="2.705" height="2.861"/>
<rect x="426.912" y="34.465" fill="#282828" stroke="#282828" stroke-width="0.5" width="2.701" height="2.862"/>
<rect x="392.551" y="23.024" fill="#282828" stroke="#282828" stroke-width="0.5" width="2.707" height="2.863"/>
<rect x="389.584" y="25.992" fill="#282828" stroke="#282828" stroke-width="0.5" width="2.703" height="2.864"/>
<rect x="386.826" y="28.856" fill="#282828" stroke="#282828" stroke-width="0.5" width="2.705" height="2.864"/>
<rect x="406.709" y="22.813" fill="#282828" stroke="#282828" stroke-width="0.5" width="2.703" height="2.861"/>
<rect x="409.572" y="25.674" fill="#282828" stroke="#282828" stroke-width="0.5" width="2.705" height="2.865"/>
<rect x="412.436" y="28.697" fill="#282828" stroke="#282828" stroke-width="0.5" width="2.703" height="2.864"/>
<rect x="395.469" y="19.895" fill="#282828" stroke="#282828" stroke-width="0.5" width="11.24" height="2.971"/>
<rect x="415.512" y="31.35" fill="#282828" stroke="#282828" stroke-width="0.5" width="11.24" height="2.969"/>
<g>
	<rect x="392.445" y="17.033" fill="#282828" stroke="#282828" stroke-width="0.5" width="5.727" height="2.968"/>
	<rect x="392.34" y="8.39" fill="#282828" stroke="#282828" stroke-width="0.5" width="5.727" height="2.971"/>
	<rect x="389.531" y="11.36" fill="#282828" stroke="#282828" stroke-width="0.5" width="2.809" height="5.726"/>
	<rect x="398.119" y="11.466" fill="#282828" stroke="#282828" stroke-width="0.5" width="2.811" height="5.727"/>
	<rect x="392.393" y="11.36" fill="#FDEB1B" stroke="#3D3D3B" stroke-width="0.5" width="5.727" height="5.62"/>
</g>
<g>
	<rect x="412.807" y="42.803" fill="#282828" stroke="#282828" stroke-width="0.5" width="5.727" height="2.968"/>
	<rect x="412.701" y="34.158" fill="#282828" stroke="#282828" stroke-width="0.5" width="5.727" height="2.971"/>
	<rect x="409.891" y="37.129" fill="#282828" stroke="#282828" stroke-width="0.5" width="2.811" height="5.724"/>
	<rect x="418.48" y="37.232" fill="#282828" stroke="#282828" stroke-width="0.5" width="2.811" height="5.729"/>
	<rect x="412.754" y="37.129" fill="#FDEB1B" stroke="#3D3D3B" stroke-width="0.5" width="5.727" height="5.62"/>
</g>
<polygon fill="#209DD9" points="455.543,11.042 455.543,2.027 458.404,2.027 458.404,-0.837 461.27,-0.837 461.27,4.893 
	466.994,4.893 466.994,7.965 464.133,8.072 464.133,10.934 "/>
<polygon fill="#209DD9" points="455.619,14 464.631,14.017 464.625,16.879 467.49,16.884 467.486,19.746 461.76,19.736 
	461.75,25.465 458.674,25.46 458.572,22.596 455.711,22.592 "/>
<polygon fill="#209DD9" points="452.467,10.978 452.555,1.965 449.691,1.936 449.719,-0.927 446.855,-0.954 446.801,4.772 
	441.074,4.714 441.043,7.791 443.906,7.924 443.877,10.788 "/>
<rect x="452.68" y="10.934" fill="#282828" stroke="#282828" stroke-width="0.5" width="2.703" height="2.864"/>
<rect x="449.711" y="13.904" fill="#282828" stroke="#282828" stroke-width="0.5" width="2.705" height="2.863"/>
<rect x="446.951" y="16.768" fill="#282828" stroke="#282828" stroke-width="0.5" width="2.707" height="2.862"/>
<polygon fill="#209DD9" points="475.586,42.735 475.586,51.749 478.447,51.749 478.447,54.611 481.311,54.611 481.311,48.886 
	487.037,48.886 487.037,45.812 484.172,45.703 484.172,42.841 "/>
<polygon fill="#209DD9" points="475.658,39.776 484.674,39.761 484.67,36.898 487.533,36.894 487.527,34.029 481.803,34.039 
	481.793,28.313 478.717,28.317 478.615,31.182 475.754,31.187 "/>
<polygon fill="#209DD9" points="472.508,42.798 472.596,51.812 469.734,51.84 469.762,54.703 466.898,54.731 466.842,49.006 
	461.117,49.061 461.086,45.987 463.949,45.854 463.922,42.988 "/>
<rect x="472.721" y="39.979" fill="#282828" stroke="#282828" stroke-width="0.5" width="2.705" height="2.861"/>
<rect x="469.754" y="37.009" fill="#282828" stroke="#282828" stroke-width="0.5" width="2.701" height="2.862"/>
<rect x="466.994" y="34.145" fill="#282828" stroke="#282828" stroke-width="0.5" width="2.705" height="2.864"/>
<rect x="432.637" y="22.706" fill="#282828" stroke="#282828" stroke-width="0.5" width="2.703" height="2.864"/>
<rect x="429.668" y="25.674" fill="#282828" stroke="#282828" stroke-width="0.5" width="2.705" height="2.865"/>
<rect x="426.912" y="28.539" fill="#282828" stroke="#282828" stroke-width="0.5" width="2.701" height="2.861"/>
<rect x="446.793" y="22.494" fill="#282828" stroke="#282828" stroke-width="0.5" width="2.705" height="2.862"/>
<rect x="449.658" y="25.356" fill="#282828" stroke="#282828" stroke-width="0.5" width="2.701" height="2.864"/>
<rect x="452.52" y="28.379" fill="#282828" stroke="#282828" stroke-width="0.5" width="2.705" height="2.862"/>
<rect x="435.553" y="19.577" fill="#282828" stroke="#282828" stroke-width="0.5" width="11.24" height="2.97"/>
<rect x="455.596" y="31.029" fill="#282828" stroke="#282828" stroke-width="0.5" width="11.24" height="2.971"/>
<g>
	<rect x="452.891" y="42.483" fill="#282828" stroke="#282828" stroke-width="0.5" width="5.729" height="2.969"/>
	<rect x="452.783" y="33.841" fill="#282828" stroke="#282828" stroke-width="0.5" width="5.729" height="2.97"/>
	<rect x="449.975" y="36.811" fill="#282828" stroke="#282828" stroke-width="0.5" width="2.809" height="5.725"/>
	<rect x="458.564" y="36.915" fill="#282828" stroke="#282828" stroke-width="0.5" width="2.811" height="5.729"/>
	<rect x="452.84" y="36.811" fill="#FDEB1B" stroke="#3D3D3B" stroke-width="0.5" width="5.725" height="5.62"/>
</g>
<rect x="191.906" y="16.715" fill="#282828" stroke="#282828" stroke-width="0.5" width="5.727" height="2.969"/>
<rect x="191.8" y="8.072" fill="#282828" stroke="#282828" stroke-width="0.5" width="5.727" height="2.97"/>
<rect x="188.988" y="11.042" fill="#282828" stroke="#282828" stroke-width="0.5" width="2.813" height="5.726"/>
<rect x="197.58" y="11.147" fill="#282828" stroke="#282828" stroke-width="0.5" width="2.809" height="5.727"/>
<rect x="191.853" y="11.042" fill="#FDEB1B" stroke="#3D3D3B" stroke-width="0.5" width="5.727" height="5.62"/>
<polygon fill="#209DD9" points="14.498,11.996 14.498,2.981 17.363,2.981 17.363,0.119 20.224,0.119 20.224,5.846 25.951,5.846 
	25.951,8.92 23.087,9.025 23.087,11.891 "/>
<polygon fill="#209DD9" points="14.574,14.955 23.585,14.968 23.582,17.833 26.445,17.838 26.441,20.701 20.714,20.689 
	20.705,26.418 17.632,26.413 17.531,23.55 14.666,23.545 "/>
<polygon fill="#209DD9" points="11.421,11.932 11.509,2.919 8.648,2.892 8.675,0.027 5.81,0 5.755,5.726 0.029,5.67 0,8.744 
	2.861,8.88 2.833,11.742 "/>
<rect x="11.634" y="11.891" fill="#282828" stroke="#282828" stroke-width="0.5" width="2.705" height="2.861"/>
<rect x="8.666" y="14.857" fill="#282828" stroke="#282828" stroke-width="0.5" width="2.703" height="2.865"/>
<rect x="5.908" y="17.723" fill="#282828" stroke="#282828" stroke-width="0.5" width="2.705" height="2.863"/>
<polygon fill="#209DD9" points="34.541,43.689 34.541,52.704 37.402,52.704 37.402,55.565 40.267,55.565 40.267,49.842 
	45.994,49.842 45.994,46.766 43.128,46.659 43.128,43.795 "/>
<polygon fill="#209DD9" points="34.615,40.73 43.628,40.717 43.625,37.853 46.488,37.848 46.484,34.985 40.757,34.992 
	40.748,29.267 37.671,29.273 37.572,32.136 34.708,32.14 "/>
<polygon fill="#209DD9" points="31.464,43.753 31.552,52.767 28.691,52.794 28.718,55.658 25.853,55.686 25.798,49.959 
	20.072,50.017 20.042,46.94 22.904,46.807 22.876,43.943 "/>
<rect x="31.677" y="40.933" fill="#282828" stroke="#282828" stroke-width="0.5" width="2.705" height="2.862"/>
<rect x="28.708" y="37.963" fill="#282828" stroke="#282828" stroke-width="0.5" width="2.703" height="2.861"/>
<rect x="25.951" y="35.101" fill="#282828" stroke="#282828" stroke-width="0.5" width="2.705" height="2.862"/>
<rect x="5.748" y="23.448" fill="#282828" stroke="#282828" stroke-width="0.5" width="2.705" height="2.862"/>
<rect x="8.613" y="26.311" fill="#282828" stroke="#282828" stroke-width="0.5" width="2.703" height="2.864"/>
<rect x="11.474" y="29.334" fill="#282828" stroke="#282828" stroke-width="0.5" width="2.705" height="2.863"/>
<rect x="14.55" y="31.985" fill="#282828" stroke="#282828" stroke-width="0.5" width="11.24" height="2.969"/>
<rect x="11.845" y="43.438" fill="#282828" stroke="#282828" stroke-width="0.5" width="5.729" height="2.97"/>
<rect x="11.74" y="34.794" fill="#282828" stroke="#282828" stroke-width="0.5" width="5.729" height="2.971"/>
<rect x="8.931" y="37.765" fill="#282828" stroke="#282828" stroke-width="0.5" width="2.811" height="5.727"/>
<rect x="17.521" y="37.871" fill="#282828" stroke="#282828" stroke-width="0.5" width="2.809" height="5.726"/>
<rect x="11.794" y="37.765" fill="#FDEB1B" stroke="#3D3D3B" stroke-width="0.5" width="5.727" height="5.621"/>
<polygon fill="#209DD9" points="54.582,11.678 54.582,2.663 57.445,2.663 57.445,-0.198 60.31,-0.198 60.31,5.528 66.037,5.528 
	66.037,8.602 63.173,8.708 63.173,11.572 "/>
<polygon fill="#209DD9" points="54.656,14.637 63.671,14.65 63.667,17.515 66.529,17.52 66.527,20.383 60.8,20.372 60.792,26.101 
	57.714,26.096 57.615,23.231 54.75,23.228 "/>
<polygon fill="#209DD9" points="51.505,11.614 51.595,2.601 48.73,2.573 48.759,-0.291 45.896,-0.318 45.841,5.408 40.115,5.353 
	40.085,8.427 42.947,8.561 42.919,11.422 "/>
<rect x="51.72" y="11.572" fill="#282828" stroke="#282828" stroke-width="0.5" width="2.703" height="2.862"/>
<rect x="48.75" y="14.54" fill="#282828" stroke="#282828" stroke-width="0.5" width="2.705" height="2.864"/>
<rect x="45.994" y="17.404" fill="#282828" stroke="#282828" stroke-width="0.5" width="2.703" height="2.864"/>
<polygon fill="#209DD9" points="74.625,43.371 74.625,52.386 77.488,52.386 77.488,55.248 80.349,55.248 80.349,49.521 
	86.076,49.521 86.076,46.447 83.214,46.342 83.214,43.477 "/>
<polygon fill="#209DD9" points="74.701,40.412 83.714,40.396 83.71,37.534 86.572,37.529 86.568,34.668 80.841,34.675 
	80.832,28.949 77.757,28.954 77.658,31.817 74.792,31.822 "/>
<polygon fill="#209DD9" points="71.548,43.436 71.638,52.448 68.773,52.476 68.802,55.34 65.939,55.367 65.882,49.642 
	60.156,49.698 60.126,46.623 62.988,46.489 62.958,43.625 "/>
<rect x="71.761" y="40.615" fill="#282828" stroke="#282828" stroke-width="0.5" width="2.703" height="2.861"/>
<rect x="68.792" y="37.645" fill="#282828" stroke="#282828" stroke-width="0.5" width="2.705" height="2.862"/>
<rect x="66.037" y="34.783" fill="#282828" stroke="#282828" stroke-width="0.5" width="2.703" height="2.861"/>
<rect x="31.677" y="23.342" fill="#282828" stroke="#282828" stroke-width="0.5" width="2.705" height="2.865"/>
<rect x="28.708" y="26.311" fill="#282828" stroke="#282828" stroke-width="0.5" width="2.703" height="2.864"/>
<rect x="25.951" y="29.175" fill="#282828" stroke="#282828" stroke-width="0.5" width="2.705" height="2.864"/>
<rect x="45.833" y="23.13" fill="#282828" stroke="#282828" stroke-width="0.5" width="2.703" height="2.862"/>
<rect x="48.697" y="25.992" fill="#282828" stroke="#282828" stroke-width="0.5" width="2.705" height="2.864"/>
<rect x="51.56" y="29.016" fill="#282828" stroke="#282828" stroke-width="0.5" width="2.703" height="2.864"/>
<rect x="34.593" y="20.214" fill="#282828" stroke="#282828" stroke-width="0.5" width="11.24" height="2.969"/>
<rect x="54.636" y="31.667" fill="#282828" stroke="#282828" stroke-width="0.5" width="11.242" height="2.969"/>
<g>
	<rect x="31.57" y="17.351" fill="#282828" stroke="#282828" stroke-width="0.5" width="5.727" height="2.971"/>
	<rect x="31.464" y="8.708" fill="#282828" stroke="#282828" stroke-width="0.5" width="5.727" height="2.97"/>
	<rect x="28.656" y="11.678" fill="#282828" stroke="#282828" stroke-width="0.5" width="2.809" height="5.727"/>
	<rect x="37.244" y="11.783" fill="#282828" stroke="#282828" stroke-width="0.5" width="2.811" height="5.727"/>
	<rect x="31.517" y="11.678" fill="#FDEB1B" stroke="#3D3D3B" stroke-width="0.5" width="5.727" height="5.62"/>
</g>
<g>
	<rect x="51.931" y="43.12" fill="#282828" stroke="#282828" stroke-width="0.5" width="5.727" height="2.968"/>
	<rect x="51.826" y="34.477" fill="#282828" stroke="#282828" stroke-width="0.5" width="5.727" height="2.97"/>
	<rect x="49.015" y="37.446" fill="#282828" stroke="#282828" stroke-width="0.5" width="2.811" height="5.725"/>
	<rect x="57.605" y="37.551" fill="#282828" stroke="#282828" stroke-width="0.5" width="2.811" height="5.729"/>
	<rect x="51.878" y="37.446" fill="#FDEB1B" stroke="#3D3D3B" stroke-width="0.5" width="5.727" height="5.62"/>
</g>
<polygon fill="#209DD9" points="94.662,11.36 94.662,2.346 97.527,2.346 97.527,-0.517 100.39,-0.517 100.39,5.21 106.117,5.21 
	106.117,8.283 103.253,8.39 103.253,11.254 "/>
<polygon fill="#209DD9" points="94.738,14.319 103.753,14.332 103.748,17.197 106.611,17.201 106.607,20.065 100.878,20.054 
	100.873,25.782 97.796,25.777 97.695,22.914 94.832,22.909 "/>
<polygon fill="#209DD9" points="91.585,11.298 91.675,2.283 88.812,2.253 88.839,-0.609 85.978,-0.637 85.919,5.09 80.193,5.034 
	80.164,8.108 83.027,8.242 82.998,11.104 "/>
<rect x="91.8" y="11.254" fill="#282828" stroke="#282828" stroke-width="0.5" width="2.703" height="2.862"/>
<rect x="88.83" y="14.222" fill="#282828" stroke="#282828" stroke-width="0.5" width="2.705" height="2.864"/>
<rect x="86.074" y="17.086" fill="#282828" stroke="#282828" stroke-width="0.5" width="2.703" height="2.864"/>
<polygon fill="#209DD9" points="114.705,43.054 114.705,52.067 117.57,52.067 117.57,54.93 120.431,54.93 120.431,49.203 
	126.158,49.203 126.158,46.13 123.296,46.023 123.296,43.159 "/>
<polygon fill="#209DD9" points="114.781,40.095 123.796,40.078 123.791,37.217 126.652,37.212 126.648,34.348 120.921,34.356 
	120.914,28.631 117.839,28.635 117.738,31.5 114.873,31.504 "/>
<polygon fill="#209DD9" points="111.628,43.117 111.718,52.13 108.855,52.158 108.882,55.021 106.019,55.05 105.962,49.323 
	100.238,49.379 100.207,46.305 103.068,46.171 103.041,43.307 "/>
<rect x="111.843" y="40.297" fill="#282828" stroke="#282828" stroke-width="0.5" width="2.703" height="2.862"/>
<rect x="108.873" y="37.327" fill="#282828" stroke="#282828" stroke-width="0.5" width="2.705" height="2.861"/>
<rect x="106.117" y="34.465" fill="#282828" stroke="#282828" stroke-width="0.5" width="2.703" height="2.862"/>
<rect x="71.757" y="23.024" fill="#282828" stroke="#282828" stroke-width="0.5" width="2.703" height="2.863"/>
<rect x="68.787" y="25.992" fill="#282828" stroke="#282828" stroke-width="0.5" width="2.707" height="2.864"/>
<rect x="66.031" y="28.856" fill="#282828" stroke="#282828" stroke-width="0.5" width="2.703" height="2.864"/>
<rect x="85.916" y="22.813" fill="#282828" stroke="#282828" stroke-width="0.5" width="2.703" height="2.861"/>
<rect x="88.777" y="25.674" fill="#282828" stroke="#282828" stroke-width="0.5" width="2.705" height="2.865"/>
<rect x="91.642" y="28.697" fill="#282828" stroke="#282828" stroke-width="0.5" width="2.701" height="2.864"/>
<rect x="74.673" y="19.895" fill="#282828" stroke="#282828" stroke-width="0.5" width="11.242" height="2.971"/>
<rect x="94.714" y="31.35" fill="#282828" stroke="#282828" stroke-width="0.5" width="11.244" height="2.969"/>
<g>
	<rect x="71.652" y="17.033" fill="#282828" stroke="#282828" stroke-width="0.5" width="5.727" height="2.968"/>
	<rect x="71.546" y="8.39" fill="#282828" stroke="#282828" stroke-width="0.5" width="5.727" height="2.971"/>
	<rect x="68.734" y="11.36" fill="#282828" stroke="#282828" stroke-width="0.5" width="2.813" height="5.726"/>
	<rect x="77.326" y="11.466" fill="#282828" stroke="#282828" stroke-width="0.5" width="2.811" height="5.727"/>
	<rect x="71.599" y="11.36" fill="#FDEB1B" stroke="#3D3D3B" stroke-width="0.5" width="5.727" height="5.62"/>
</g>
<g>
	<rect x="92.013" y="42.803" fill="#282828" stroke="#282828" stroke-width="0.5" width="5.727" height="2.968"/>
	<rect x="91.908" y="34.158" fill="#282828" stroke="#282828" stroke-width="0.5" width="5.725" height="2.971"/>
	<rect x="89.095" y="37.129" fill="#282828" stroke="#282828" stroke-width="0.5" width="2.813" height="5.724"/>
	<rect x="97.685" y="37.232" fill="#282828" stroke="#282828" stroke-width="0.5" width="2.813" height="5.729"/>
	<rect x="91.96" y="37.129" fill="#FDEB1B" stroke="#3D3D3B" stroke-width="0.5" width="5.725" height="5.62"/>
</g>
<polygon fill="#209DD9" points="134.748,11.042 134.748,2.027 137.613,2.027 137.613,-0.837 140.474,-0.837 140.474,4.893 
	146.201,4.893 146.201,7.965 143.339,8.072 143.339,10.934 "/>
<polygon fill="#209DD9" points="134.824,14 143.835,14.017 143.832,16.879 146.695,16.884 146.691,19.746 140.964,19.736 
	140.957,25.465 137.882,25.46 137.781,22.596 134.916,22.592 "/>
<polygon fill="#209DD9" points="131.671,10.978 131.759,1.965 128.898,1.936 128.925,-0.927 126.062,-0.954 126.005,4.772 
	120.279,4.714 120.25,7.791 123.111,7.924 123.083,10.788 "/>
<rect x="131.884" y="10.934" fill="#282828" stroke="#282828" stroke-width="0.5" width="2.705" height="2.864"/>
<rect x="128.916" y="13.904" fill="#282828" stroke="#282828" stroke-width="0.5" width="2.703" height="2.863"/>
<rect x="126.158" y="16.768" fill="#282828" stroke="#282828" stroke-width="0.5" width="2.705" height="2.862"/>
<polygon fill="#209DD9" points="154.791,42.735 154.791,51.749 157.652,51.749 157.652,54.611 160.517,54.611 160.517,48.886 
	166.244,48.886 166.244,45.812 163.378,45.703 163.378,42.841 "/>
<polygon fill="#209DD9" points="154.867,39.776 163.878,39.761 163.875,36.898 166.738,36.894 166.734,34.029 161.007,34.039 
	160.998,28.313 157.923,28.317 157.82,31.182 154.958,31.187 "/>
<polygon fill="#209DD9" points="151.714,42.798 151.802,51.812 148.939,51.84 148.968,54.703 146.103,54.731 146.048,49.006 
	140.322,49.061 140.292,45.987 143.154,45.854 143.126,42.988 "/>
<rect x="151.925" y="39.979" fill="#282828" stroke="#282828" stroke-width="0.5" width="2.707" height="2.861"/>
<rect x="148.958" y="37.009" fill="#282828" stroke="#282828" stroke-width="0.5" width="2.703" height="2.862"/>
<rect x="146.201" y="34.145" fill="#282828" stroke="#282828" stroke-width="0.5" width="2.705" height="2.864"/>
<rect x="111.843" y="22.706" fill="#282828" stroke="#282828" stroke-width="0.5" width="2.703" height="2.864"/>
<rect x="108.873" y="25.674" fill="#282828" stroke="#282828" stroke-width="0.5" width="2.705" height="2.865"/>
<rect x="106.117" y="28.539" fill="#282828" stroke="#282828" stroke-width="0.5" width="2.703" height="2.861"/>
<rect x="126" y="22.494" fill="#282828" stroke="#282828" stroke-width="0.5" width="2.705" height="2.862"/>
<rect x="128.863" y="25.356" fill="#282828" stroke="#282828" stroke-width="0.5" width="2.703" height="2.864"/>
<rect x="131.724" y="28.379" fill="#282828" stroke="#282828" stroke-width="0.5" width="2.705" height="2.862"/>
<rect x="114.757" y="19.577" fill="#282828" stroke="#282828" stroke-width="0.5" width="11.242" height="2.97"/>
<rect x="134.802" y="31.029" fill="#282828" stroke="#282828" stroke-width="0.5" width="11.238" height="2.971"/>
<g>
	<rect x="111.738" y="16.715" fill="#282828" stroke="#282828" stroke-width="0.5" width="5.725" height="2.969"/>
	<rect x="111.63" y="8.072" fill="#282828" stroke="#282828" stroke-width="0.5" width="5.727" height="2.97"/>
	<rect x="108.82" y="11.042" fill="#282828" stroke="#282828" stroke-width="0.5" width="2.811" height="5.726"/>
	<rect x="117.41" y="11.147" fill="#282828" stroke="#282828" stroke-width="0.5" width="2.811" height="5.727"/>
	<rect x="111.683" y="11.042" fill="#FDEB1B" stroke="#3D3D3B" stroke-width="0.5" width="5.727" height="5.62"/>
</g>
<g>
	<rect x="132.097" y="42.483" fill="#282828" stroke="#282828" stroke-width="0.5" width="5.727" height="2.969"/>
	<rect x="131.99" y="33.841" fill="#282828" stroke="#282828" stroke-width="0.5" width="5.729" height="2.97"/>
	<rect x="129.181" y="36.811" fill="#282828" stroke="#282828" stroke-width="0.5" width="2.811" height="5.725"/>
	<rect x="137.771" y="36.915" fill="#282828" stroke="#282828" stroke-width="0.5" width="2.809" height="5.729"/>
	<rect x="132.044" y="36.811" fill="#FDEB1B" stroke="#3D3D3B" stroke-width="0.5" width="5.727" height="5.62"/>
</g>
<polygon fill="#209DD9" points="174.832,11.36 174.832,2.346 177.697,2.346 177.697,-0.517 180.56,-0.517 180.56,5.21 186.287,5.21 
	186.287,8.283 183.421,8.39 183.421,11.254 "/>
<polygon fill="#209DD9" points="174.908,14.319 183.921,14.332 183.917,17.197 186.779,17.201 186.777,20.065 181.05,20.054 
	181.039,25.782 177.964,25.777 177.865,22.914 175,22.909 "/>
<polygon fill="#209DD9" points="171.755,11.298 171.845,2.283 168.98,2.253 169.009,-0.609 166.146,-0.637 166.091,5.09 
	160.365,5.034 160.335,8.108 163.197,8.242 163.169,11.104 "/>
<rect x="171.97" y="11.254" fill="#282828" stroke="#282828" stroke-width="0.5" width="2.701" height="2.862"/>
<rect x="169" y="14.222" fill="#282828" stroke="#282828" stroke-width="0.5" width="2.705" height="2.864"/>
<rect x="166.244" y="17.086" fill="#282828" stroke="#282828" stroke-width="0.5" width="2.703" height="2.864"/>
<polygon fill="#209DD9" points="194.875,43.054 194.875,52.067 197.738,52.067 197.738,54.93 200.599,54.93 200.599,49.203 
	206.326,49.203 206.326,46.13 203.464,46.023 203.464,43.159 "/>
<polygon fill="#209DD9" points="194.951,40.095 203.964,40.078 203.96,37.217 206.822,37.212 206.818,34.348 201.091,34.356 
	201.082,28.631 198.007,28.635 197.906,31.5 195.042,31.504 "/>
<polygon fill="#209DD9" points="191.798,43.117 191.888,52.13 189.023,52.158 189.05,55.021 186.189,55.05 186.132,49.323 
	180.406,49.379 180.376,46.305 183.238,46.171 183.208,43.307 "/>
<rect x="192.011" y="40.297" fill="#282828" stroke="#282828" stroke-width="0.5" width="2.703" height="2.862"/>
<rect x="189.042" y="37.327" fill="#282828" stroke="#282828" stroke-width="0.5" width="2.705" height="2.861"/>
<rect x="186.287" y="34.465" fill="#282828" stroke="#282828" stroke-width="0.5" width="2.701" height="2.862"/>
<rect x="151.925" y="23.024" fill="#282828" stroke="#282828" stroke-width="0.5" width="2.707" height="2.863"/>
<rect x="148.958" y="25.992" fill="#282828" stroke="#282828" stroke-width="0.5" width="2.703" height="2.864"/>
<rect x="146.201" y="28.856" fill="#282828" stroke="#282828" stroke-width="0.5" width="2.705" height="2.864"/>
<rect x="166.083" y="22.813" fill="#282828" stroke="#282828" stroke-width="0.5" width="2.703" height="2.861"/>
<rect x="168.947" y="25.674" fill="#282828" stroke="#282828" stroke-width="0.5" width="2.705" height="2.865"/>
<rect x="171.81" y="28.697" fill="#282828" stroke="#282828" stroke-width="0.5" width="2.703" height="2.864"/>
<rect x="154.843" y="19.895" fill="#282828" stroke="#282828" stroke-width="0.5" width="11.24" height="2.971"/>
<rect x="174.886" y="31.35" fill="#282828" stroke="#282828" stroke-width="0.5" width="11.24" height="2.969"/>
<g>
	<rect x="151.82" y="17.033" fill="#282828" stroke="#282828" stroke-width="0.5" width="5.727" height="2.968"/>
	<rect x="151.714" y="8.39" fill="#282828" stroke="#282828" stroke-width="0.5" width="5.727" height="2.971"/>
	<rect x="148.906" y="11.36" fill="#282828" stroke="#282828" stroke-width="0.5" width="2.809" height="5.726"/>
	<rect x="157.494" y="11.466" fill="#282828" stroke="#282828" stroke-width="0.5" width="2.811" height="5.727"/>
	<rect x="151.767" y="11.36" fill="#FDEB1B" stroke="#3D3D3B" stroke-width="0.5" width="5.727" height="5.62"/>
</g>
<g>
	<rect x="172.181" y="42.803" fill="#282828" stroke="#282828" stroke-width="0.5" width="5.727" height="2.968"/>
	<rect x="172.076" y="34.158" fill="#282828" stroke="#282828" stroke-width="0.5" width="5.727" height="2.971"/>
	<rect x="169.265" y="37.129" fill="#282828" stroke="#282828" stroke-width="0.5" width="2.811" height="5.724"/>
	<rect x="177.855" y="37.232" fill="#282828" stroke="#282828" stroke-width="0.5" width="2.811" height="5.729"/>
	<rect x="172.128" y="37.129" fill="#FDEB1B" stroke="#3D3D3B" stroke-width="0.5" width="5.727" height="5.62"/>
</g>
<polygon fill="#209DD9" points="214.917,11.042 214.917,2.027 217.779,2.027 217.779,-0.837 220.644,-0.837 220.644,4.893 
	226.369,4.893 226.369,7.965 223.507,8.072 223.507,10.934 "/>
<polygon fill="#209DD9" points="214.994,14 224.005,14.017 224,16.879 226.865,16.884 226.861,19.746 221.134,19.736 
	221.125,25.465 218.048,25.46 217.947,22.596 215.085,22.592 "/>
<polygon fill="#209DD9" points="211.841,10.978 211.929,1.965 209.066,1.936 209.093,-0.927 206.23,-0.954 206.175,4.772 
	200.449,4.714 200.417,7.791 203.281,7.924 203.251,10.788 "/>
<rect x="212.054" y="10.934" fill="#282828" stroke="#282828" stroke-width="0.5" width="2.703" height="2.864"/>
<rect x="209.085" y="13.904" fill="#282828" stroke="#282828" stroke-width="0.5" width="2.705" height="2.863"/>
<rect x="206.326" y="16.768" fill="#282828" stroke="#282828" stroke-width="0.5" width="2.707" height="2.862"/>
<polygon fill="#209DD9" points="234.96,42.735 234.96,51.749 237.822,51.749 237.822,54.611 240.685,54.611 240.685,48.886 
	246.411,48.886 246.411,45.812 243.546,45.703 243.546,42.841 "/>
<polygon fill="#209DD9" points="235.033,39.776 244.048,39.761 244.044,36.898 246.907,36.894 246.901,34.029 241.177,34.039 
	241.167,28.313 238.091,28.317 237.99,31.182 235.128,31.187 "/>
<polygon fill="#209DD9" points="231.882,42.798 231.97,51.812 229.109,51.84 229.136,54.703 226.273,54.731 226.216,49.006 
	220.492,49.061 220.46,45.987 223.324,45.854 223.296,42.988 "/>
<rect x="232.095" y="39.979" fill="#282828" stroke="#282828" stroke-width="0.5" width="2.705" height="2.861"/>
<rect x="229.128" y="37.009" fill="#282828" stroke="#282828" stroke-width="0.5" width="2.701" height="2.862"/>
<rect x="226.369" y="34.145" fill="#282828" stroke="#282828" stroke-width="0.5" width="2.705" height="2.864"/>
<rect x="192.011" y="22.706" fill="#282828" stroke="#282828" stroke-width="0.5" width="2.703" height="2.864"/>
<rect x="189.042" y="25.674" fill="#282828" stroke="#282828" stroke-width="0.5" width="2.705" height="2.865"/>
<rect x="186.287" y="28.539" fill="#282828" stroke="#282828" stroke-width="0.5" width="2.701" height="2.861"/>
<rect x="206.167" y="22.494" fill="#282828" stroke="#282828" stroke-width="0.5" width="2.705" height="2.862"/>
<rect x="209.033" y="25.356" fill="#282828" stroke="#282828" stroke-width="0.5" width="2.701" height="2.864"/>
<rect x="211.894" y="28.379" fill="#282828" stroke="#282828" stroke-width="0.5" width="2.705" height="2.862"/>
<rect x="194.927" y="19.577" fill="#282828" stroke="#282828" stroke-width="0.5" width="11.24" height="2.97"/>
<rect x="214.97" y="31.029" fill="#282828" stroke="#282828" stroke-width="0.5" width="11.24" height="2.971"/>
<g>
	<rect x="212.265" y="42.483" fill="#282828" stroke="#282828" stroke-width="0.5" width="5.729" height="2.969"/>
	<rect x="212.158" y="33.841" fill="#282828" stroke="#282828" stroke-width="0.5" width="5.729" height="2.97"/>
	<rect x="209.349" y="36.811" fill="#282828" stroke="#282828" stroke-width="0.5" width="2.809" height="5.725"/>
	<rect x="217.939" y="36.915" fill="#282828" stroke="#282828" stroke-width="0.5" width="2.811" height="5.729"/>
	<rect x="212.214" y="36.811" fill="#FDEB1B" stroke="#3D3D3B" stroke-width="0.5" width="5.725" height="5.62"/>
</g>
</svg>
